<svg width="440" height="439" viewBox="0 0 440 439" fill="none" xmlns="http://www.w3.org/2000/svg">
<path d="M269.153 26.2267C272.542 28.9207 277.008 37.5414 277.019 37.5414C277.03 37.5414 270.547 38.7914 270.114 38.8345C265.247 39.1363 255.692 36.7871 253.696 31.6147C253.409 30.801 253.282 29.9375 253.322 29.0736C253.361 28.2097 253.568 27.3623 253.928 26.5798C254.289 25.7972 254.798 25.0949 255.424 24.5129C256.051 23.9309 256.784 23.4807 257.582 23.1879C257.803 23.1125 258.025 23.037 258.257 22.9832C261.963 21.9271 266.26 23.9746 269.153 26.2267Z" fill="#FFE393"/>
<path d="M318.164 101.529C318.259 101.583 313.445 106.249 313.107 106.497C309.211 109.492 299.931 112.908 295.507 109.729C294.828 109.211 294.255 108.561 293.822 107.817C293.389 107.073 293.104 106.249 292.984 105.392C292.863 104.535 292.909 103.663 293.119 102.824C293.329 101.986 293.699 101.198 294.208 100.505C294.344 100.316 294.492 100.136 294.652 99.9663C297.164 96.9922 301.863 96.281 305.495 96.5288C309.76 96.809 318.164 101.529 318.164 101.529Z" fill="#FFE393"/>
<path d="M303.552 15.3324C308.221 17.8853 312.727 20.7358 317.045 23.8669C316.725 23.8653 316.407 23.8292 316.095 23.7592C312.136 23.1342 305.051 19.7182 303.552 15.3324Z" fill="#FFE393"/>
<path d="M298.114 28.7807C298.22 29.0824 300.923 36.938 300.553 40.6342C300.247 43.8669 298.97 47.9402 296.087 49.7614C294.829 50.6057 293.293 50.9052 291.818 50.594C290.343 50.2828 289.049 49.3864 288.222 48.1019C288.116 47.9295 288.021 47.757 287.926 47.5739C285.814 43.1665 290.038 35.4725 293.205 32.4876C293.406 32.2936 296.119 30.1923 297.428 29.2548L297.312 29.007C293.126 30.2361 289.058 31.852 285.16 33.8346C283.048 34.9122 280.989 35.9897 279.068 37.1643C279.712 38.576 282.583 45.0415 282.626 48.4467C282.668 51.8519 281.855 55.8821 279.184 58.0049C278.025 58.9873 276.532 59.4607 275.032 59.3213C273.532 59.182 272.147 58.4412 271.181 57.2614C271.052 57.1071 270.932 56.9451 270.822 56.7765C268.256 52.617 271.666 44.5027 274.412 41.1622C274.528 40.9574 276.291 39.298 277.579 38.0911C276.713 38.6191 275.795 39.1686 275.003 39.6859C271.941 41.6363 269.206 43.6407 266.862 45.4295C265.522 46.507 264.329 47.423 263.241 48.3066C263.167 50.0308 262.777 56.9274 261.309 59.9338C259.841 62.9403 257.265 66.1623 253.918 66.8304C252.443 67.1573 250.9 66.8735 249.63 66.0411C248.359 65.2088 247.464 63.896 247.14 62.3907C247.14 62.1968 247.077 62.0028 247.056 61.8088C246.665 56.9166 253.327 51.3131 257.329 49.6536C257.656 49.5027 263.262 47.8648 263.252 47.9618V48.0588C264.307 47.1644 265.458 46.2377 266.683 45.2139C269.027 43.3605 271.688 41.3023 274.76 39.2764C277.99 37.0238 281.346 34.9657 284.811 33.1126C288.705 31.0365 292.772 29.3164 296.964 27.9725H297.111C295.718 27.9725 291.78 27.8 291.473 27.7569C287.25 27.0888 279.437 23.2418 278.698 18.4142C278.509 16.8958 278.918 15.3629 279.834 14.1511C280.75 12.9394 282.1 12.1474 283.587 11.9487C283.794 11.938 284.002 11.938 284.209 11.9487C287.588 11.7547 290.903 14.3301 292.973 16.8194C295.369 19.5134 297.481 27.1966 297.629 27.8432C301.929 26.5886 306.306 25.6275 310.731 24.966C312.938 24.6535 315.145 24.3518 317.32 24.1039C317.943 24.5457 318.555 24.9983 319.157 25.4725C316.369 25.6987 313.582 25.9789 310.858 26.3345C306.565 26.8794 302.309 27.6964 298.114 28.7807Z" fill="#FFE393"/>
<path d="M315.799 28.9207C315.989 28.7375 318.365 26.8948 319.748 25.8604C320.287 26.2591 320.804 26.6685 321.342 27.078C322.145 29.675 323.454 34.4488 323.169 37.1212C322.863 40.354 321.596 44.4165 318.703 46.2268C317.444 47.0712 315.908 47.3707 314.433 47.0595C312.958 46.7483 311.665 45.8518 310.837 44.5673C310.732 44.3949 310.626 44.2225 310.542 44.0501C308.451 39.6966 312.695 31.9595 315.799 28.9207Z" fill="#FFE393"/>
<path d="M335.258 41.4317C334.918 40.6883 334.731 39.8813 334.709 39.061C336.451 40.8175 338.172 42.6494 339.851 44.5352C338.991 44.4719 338.158 44.2076 337.414 43.7629C336.671 43.3182 336.038 42.7049 335.564 41.9705C335.452 41.7971 335.35 41.6172 335.258 41.4317Z" fill="#FFE393"/>
<path d="M356.522 85.0633C355.941 86.4719 354.839 87.5899 353.455 88.1749C352.072 88.7599 350.518 88.7647 349.131 88.1883C348.933 88.1022 348.739 88.0051 348.55 87.8974C344.422 85.4081 343.852 76.5827 344.76 72.337C344.823 72.0245 346.302 67.7249 346.734 66.658C344.158 68.7055 341.624 70.7745 339.207 72.9189C335.926 75.7987 332.826 78.8867 329.926 82.1646C330.2 82.3155 336.651 87.3801 338.372 90.6884C339.861 93.5655 341.001 97.6712 339.576 100.807C338.993 102.227 337.882 103.353 336.486 103.937C335.09 104.52 333.524 104.515 332.133 103.921C331.935 103.845 331.744 103.752 331.562 103.641C327.434 101.152 326.864 92.3263 327.783 88.0806C327.835 87.8004 328.955 84.5245 329.525 82.9836L329.282 82.8435C326.465 86.2293 323.95 89.8644 321.765 93.7056C320.529 95.8069 319.473 97.8974 318.481 99.9341C319.78 100.742 325.65 104.503 327.55 107.326C329.451 110.15 330.918 113.964 329.831 117.262C329.396 118.734 328.408 119.97 327.082 120.699C325.756 121.428 324.201 121.591 322.757 121.152C322.567 121.087 322.377 121.023 322.187 120.936C317.826 118.921 316.264 110.236 316.749 105.85C316.749 105.645 317.193 103.781 317.562 102.165C317.615 101.949 317.657 101.734 317.71 101.529C317.562 101.831 317.425 102.143 317.277 102.456C316.992 103.07 316.697 103.695 316.433 104.298C314.944 107.671 313.772 110.85 312.759 113.673C312.188 115.279 311.703 116.766 311.28 118.135C312.146 119.6 315.578 125.592 315.968 128.911C316.359 132.229 315.968 136.389 313.519 138.781C313.001 139.329 312.383 139.767 311.699 140.07C311.016 140.374 310.28 140.537 309.535 140.55C308.79 140.563 308.049 140.425 307.356 140.146C306.663 139.867 306.03 139.451 305.495 138.921L305.072 138.469C302.116 134.622 304.65 126.173 307.047 122.553C307.226 122.229 310.974 117.801 311.08 117.801H311.154C311.544 116.464 311.977 115.042 312.484 113.49C313.445 110.635 314.596 107.445 315.968 103.997C316.032 103.835 316.105 103.663 316.179 103.501C316.528 102.639 316.897 101.788 317.235 100.936C318.397 98.3069 319.671 95.7279 321.057 93.1991C323.171 89.2665 325.62 85.5309 328.374 82.0353C328.374 82.0353 328.427 81.9491 328.448 81.8952C327.265 82.6818 323.897 84.7508 323.623 84.8801C319.737 86.712 311.154 87.8974 307.923 84.2874C307.433 83.7129 307.059 83.0452 306.822 82.3227C306.585 81.6001 306.491 80.837 306.544 80.0771C306.597 79.3172 306.796 78.5755 307.131 77.8945C307.465 77.2134 307.928 76.6065 308.493 76.1085C308.642 75.9703 308.8 75.8442 308.968 75.7314C311.692 73.6624 315.852 73.9533 318.924 74.8693C322.387 75.9469 328.321 81.0978 328.796 81.5073C331.704 78.039 334.832 74.7703 338.161 71.7227C340.093 69.9339 342.099 68.199 344.127 66.4856C343.071 67.1214 342.152 67.6925 342.015 67.7464C338.13 69.5783 329.556 70.7637 326.305 67.1537C325.319 65.994 324.825 64.4828 324.93 62.9516C325.035 61.4204 325.73 59.9941 326.864 58.9856C327.022 58.847 327.188 58.7175 327.36 58.5977C330.074 56.5287 334.234 56.8196 337.306 57.7356C340.378 58.6515 345.563 62.9835 346.914 64.2011C347.706 63.5546 348.477 62.8865 349.258 62.2507L352.013 59.9878L353.069 61.5395L350.388 63.63L346.903 66.421C347.41 66.8197 353.587 71.6688 355.297 74.9016C356.807 77.8327 357.937 81.9275 356.522 85.0633Z" fill="#FFE393"/>
<path d="M41.6898 239.924C41.6898 239.978 44.9839 237.489 45.1845 237.316C47.37 235.215 50.3791 229.849 48.9432 226.745C48.7081 226.269 48.3832 225.845 47.9873 225.497C47.5913 225.15 47.132 224.885 46.6357 224.719C46.1394 224.553 45.6159 224.488 45.0951 224.529C44.5743 224.57 44.0665 224.715 43.6008 224.956C43.4684 225.021 43.3413 225.097 43.2207 225.183C41.1935 226.433 40.275 229.267 40.0533 231.54C39.7682 234.224 41.6898 239.924 41.6898 239.924Z" fill="#FFE393"/>
<path d="M5.88728 274.687C6.23248 275.563 6.22419 276.543 5.86422 277.414C5.50424 278.284 4.82179 278.973 3.9657 279.332C3.36249 279.595 2.71025 279.72 2.05469 279.698C2.44534 277.263 2.88878 274.838 3.40613 272.435C4.37519 272.789 5.20277 273.46 5.76058 274.342L5.88728 274.687Z" fill="#FFE393"/>
<path d="M64.3262 240.969C62.6474 242.23 60.1029 242.047 58.1919 241.444C56.2809 240.84 53.0607 238.103 52.2688 237.413C51.4031 237.532 50.4739 237.672 49.4604 237.855C47.6655 238.178 45.6278 238.577 43.495 239.148L42.3336 239.472L41.6896 239.655H42.133C43.1255 239.569 44.2447 239.515 44.3714 239.525C46.9898 239.644 51.9943 241.541 52.7439 244.45L52.8073 244.806C52.8633 245.273 52.8285 245.747 52.7049 246.2C52.5813 246.653 52.3713 247.077 52.0868 247.448C51.8024 247.818 51.4492 248.127 51.0474 248.358C50.6457 248.589 50.2032 248.737 49.7454 248.793C47.6338 249.127 45.5222 247.791 44.0757 246.336C42.6293 244.881 40.9083 240.829 40.6338 239.87C39.314 240.269 37.9626 240.711 36.59 241.25C34.0876 242.276 31.6811 243.531 29.4 245V245.161C30.4558 244.957 32.4513 244.622 32.5674 244.612C35.1964 244.461 40.3804 245.775 41.4257 248.566C41.4257 248.685 41.4996 248.814 41.5312 248.933C41.6378 249.391 41.6545 249.867 41.5804 250.332C41.5063 250.797 41.343 251.243 41.0997 251.643C40.8563 252.044 40.5379 252.391 40.1626 252.666C39.7873 252.941 39.3626 253.137 38.9128 253.243C36.8857 253.771 34.5629 252.64 33.0003 251.401C31.2054 249.967 28.8721 245.452 28.7771 245.269C26.5148 246.712 24.3491 248.306 22.2944 250.043C20.7529 251.304 19.2642 252.661 17.7755 254.041C18.4512 253.879 21.1541 253.426 21.3547 253.416C23.9837 253.265 29.1677 254.579 30.213 257.37C30.2544 257.491 30.2897 257.613 30.3185 257.737C30.4265 258.195 30.4443 258.671 30.3709 259.137C30.2974 259.603 30.1342 260.049 29.8907 260.45C29.6472 260.851 29.3282 261.198 28.9522 261.472C28.5762 261.747 28.1506 261.942 27.7001 262.047C25.673 262.564 23.3502 261.433 21.7982 260.204C20.0138 258.793 17.8178 254.472 17.5749 254.105C16.8886 254.719 16.2129 255.355 15.5478 255.991C13.3411 258.049 11.1556 260.118 8.92784 262.101C8.1571 262.791 7.3758 263.437 6.58394 264.084C7.63975 263.89 9.49797 263.577 9.65634 263.567C12.2959 263.416 17.4693 264.73 18.5146 267.521C18.5146 267.64 18.5885 267.769 18.6202 267.888C18.7268 268.345 18.744 268.82 18.6706 269.285C18.5972 269.749 18.4347 270.195 18.1925 270.595C17.9502 270.995 17.633 271.343 17.2589 271.618C16.8848 271.893 16.4611 272.09 16.0123 272.198C13.9852 272.715 11.6624 271.562 10.0998 270.355C8.53719 269.148 6.58394 265.506 6.05603 264.482L4.78906 265.495C5.84487 261.401 7.03794 257.381 8.38937 253.469C9.17067 256.077 7.81924 260.194 6.53115 262.09C6.53115 262.155 6.12994 262.597 5.6865 263.114C6.52059 262.457 7.33356 261.821 8.12542 261.142C10.3743 259.235 12.6021 257.219 14.8404 255.204L16.2552 253.954C15.7061 252.995 13.679 249.353 13.4467 247.316C13.2144 245.28 13.4467 242.683 14.9987 241.217C15.0861 241.119 15.1815 241.029 15.2838 240.948C15.6391 240.652 16.0482 240.431 16.4875 240.297C16.9268 240.163 17.3877 240.118 17.8438 240.166C18.2999 240.214 18.7422 240.354 19.1454 240.577C19.5486 240.8 19.9047 241.101 20.1933 241.465C22.0093 243.847 20.4045 249.008 18.9052 251.26C18.5591 251.624 18.2313 252.005 17.9233 252.403C19.1586 251.325 20.4045 250.247 21.6715 249.267C23.8872 247.492 26.2229 245.879 28.6609 244.439C28.4709 244.105 26.0108 239.903 25.7469 237.618C25.5146 235.592 25.7469 232.984 27.2989 231.519L27.584 231.25C28.3045 230.654 29.2266 230.375 30.1487 230.471C31.0707 230.568 31.9176 231.034 32.5041 231.767C34.2989 234.116 32.7047 239.31 31.216 241.562C31.0998 241.724 29.4844 243.599 28.9354 244.235H29.0093C31.3721 242.89 33.845 241.758 36.4 240.851C38.0682 240.247 39.768 239.773 41.4784 239.278L43.2628 238.836H43.3683C45.5539 238.297 47.5916 237.952 49.3865 237.672C50.3684 237.51 51.2552 237.403 52.0893 237.295V237.241C52.0893 237.241 55.1512 235.355 55.3623 235.28C57.7801 234.202 63.0697 233.523 65.0547 235.765L65.2764 236.066C65.7763 236.849 65.9568 237.799 65.7793 238.715C65.6017 239.631 65.0802 240.44 64.3262 240.969Z" fill="#FFE393"/>
<path d="M388.872 213.254C386.026 244.063 377.967 274.135 365.053 302.134L95.3467 194.611L388.872 213.254Z" fill="#FFE393"/>
<path d="M389.928 190.128C389.928 191.863 389.928 193.609 389.875 195.355C389.875 196.238 389.875 197.122 389.801 198.006C389.801 198.717 389.801 199.439 389.727 200.161V200.926C389.727 201.723 389.653 202.51 389.611 203.307C389.611 203.943 389.548 204.579 389.505 205.204C389.463 205.829 389.337 206.723 389.337 207.456C389.337 208.189 389.21 209.299 389.136 210.215C389.062 211.131 388.978 212.241 388.883 213.254C388.724 214.956 388.555 216.659 388.365 218.361L378.398 218.167L344.38 217.499L316.929 216.993L273.345 216.174L230.057 215.366C229.983 212.715 230.427 207.693 233.383 200.161C233.736 199.079 234.358 198.11 235.188 197.348C239.581 194.051 245.007 211.26 245.314 212.251C245.314 212.198 245.314 212.111 245.366 211.993L245.44 211.723C245.852 210.517 247.478 207.262 253.823 200.592C256.209 198.092 258.469 197.553 260.486 198.081C261.896 198.501 263.181 199.276 264.223 200.333C266.283 202.452 267.966 204.921 269.196 207.629C269.196 207.133 268.668 200.991 268.679 193.986C268.679 183.458 269.84 170.969 275.372 172.736C278.74 173.814 280.651 178.641 281.781 184.396C283.745 194.676 283.048 207.92 283.048 207.92C284.115 204.522 285.38 201.194 286.839 197.952C289.753 191.486 294.092 184.385 298.98 184.482C303.204 184.557 305.801 188.383 307.427 192.424C308.562 195.389 309.346 198.482 309.76 201.637C309.76 201.637 310.256 196.195 311.523 189.924C313.213 181.497 316.296 171.605 321.385 171.324C322.871 171.33 324.312 171.85 325.471 172.801C332.935 178.189 339.724 196.508 339.724 196.508C339.724 196.508 338.225 173.006 342.891 164.18C343.831 162.413 345.003 161.238 346.502 160.947C355.403 159.417 358.465 173.598 358.465 173.598C358.465 173.598 367.059 126.841 381.904 132.779C382.409 132.981 382.891 133.242 383.34 133.555C384.536 138.72 385.61 144.033 386.56 149.492C387.264 153.465 387.844 157.47 388.302 161.508C388.45 162.671 388.576 163.846 388.703 165.021C389.132 169.266 389.456 173.537 389.674 177.833C389.85 181.957 389.935 186.055 389.928 190.128Z" fill="#FFE393"/>
<path d="M260.4 206.335C260.559 206.077 262.069 203.577 264.244 200.323C265.542 198.372 267.084 196.152 268.699 193.976C272.511 188.868 276.797 184.008 279.595 183.544C280.002 183.495 280.414 183.546 280.798 183.692C281.182 183.838 281.526 184.076 281.802 184.385C284.072 186.54 285.75 192.499 286.859 197.941C287.968 203.383 288.559 208.577 288.559 208.577C288.559 208.577 292.191 191.691 294.957 191.745C297.723 191.799 301.429 201.443 301.429 201.443C302.681 197.969 304.743 194.859 307.437 192.381C308.647 191.307 310.034 190.461 311.533 189.881C312.278 189.593 313.049 189.38 313.835 189.245C322.725 187.715 330.168 204.805 330.168 204.805C330.168 204.805 325.945 187.251 325.48 172.758C325.206 163.059 326.642 154.773 332.195 153.975C336.566 153.34 340.082 157.812 342.849 164.223C348.846 178.146 351.295 201.238 351.295 201.238C351.543 196.778 352.57 192.399 354.325 188.307C357.218 181.583 369.107 199.891 369.107 199.891C369.107 199.891 372.39 162.176 387.932 164.945C388.191 164.988 388.449 165.046 388.702 165.118" stroke="#263238" stroke-linecap="round" stroke-linejoin="round"/>
<path d="M260.391 206.357C260.9 203.634 260.947 200.842 260.528 198.103C260.042 195.667 258.839 193.588 256.22 193.318C250.265 192.704 246.243 208.491 245.483 211.745L245.409 212.014C245.409 212.133 245.409 212.219 245.356 212.273C245.356 212.273 240.161 200.797 235.22 197.327C233.837 196.368 232.475 196.023 231.25 196.745C225.655 200.032 228.083 218.167 228.083 218.167" stroke="#263238" stroke-linecap="round" stroke-linejoin="round"/>
<path d="M384.12 193.975L378.123 219.299" stroke="#263238" stroke-linecap="round" stroke-linejoin="round"/>
<path d="M341.888 201.67L344.379 217.532" stroke="#263238" stroke-linecap="round" stroke-linejoin="round"/>
<path d="M278.17 203.297L272.934 217.338" stroke="#263238" stroke-linecap="round" stroke-linejoin="round"/>
<path d="M311.354 206.185L317.235 217.596" stroke="#263238" stroke-linecap="round" stroke-linejoin="round"/>
<path d="M375.716 199.471L379.981 208.599" stroke="#263238" stroke-linecap="round" stroke-linejoin="round"/>
<path d="M348.487 204.611L344.475 212.445" stroke="#263238" stroke-linecap="round" stroke-linejoin="round"/>
<path d="M317.436 206.303L314.585 211.336" stroke="#263238" stroke-linecap="round" stroke-linejoin="round"/>
<path d="M273.715 204.342L275.277 210.032" stroke="#263238" stroke-linecap="round" stroke-linejoin="round"/>
<path opacity="0.1" d="M389.928 190.128C389.928 191.863 389.928 193.609 389.875 195.355C389.875 196.238 389.875 197.122 389.801 198.006C389.801 198.717 389.801 199.439 389.727 200.161V200.926C389.727 201.723 389.653 202.51 389.611 203.307C389.611 203.943 389.548 204.579 389.505 205.204C389.463 205.829 389.337 206.723 389.337 207.456C389.337 208.189 389.21 209.299 389.136 210.215C389.062 211.131 388.978 212.241 388.883 213.254C388.724 214.956 388.555 216.659 388.365 218.361L378.398 218.167L344.38 217.499L316.929 216.993L273.345 216.174L230.057 215.366C229.983 212.715 230.427 207.693 233.383 200.161C233.736 199.079 234.358 198.11 235.188 197.348C239.581 194.051 245.007 211.26 245.314 212.251C245.314 212.198 245.314 212.111 245.366 211.993L245.44 211.723C245.852 210.517 247.478 207.262 253.823 200.592C256.209 198.092 258.469 197.553 260.486 198.081C261.896 198.501 263.181 199.276 264.223 200.333C266.283 202.452 267.966 204.921 269.196 207.629C269.196 207.133 268.668 200.991 268.679 193.986C268.679 183.458 269.84 170.969 275.372 172.736C278.74 173.814 280.651 178.641 281.781 184.396C283.745 194.676 283.048 207.92 283.048 207.92C284.115 204.522 285.38 201.194 286.839 197.952C289.753 191.486 294.092 184.385 298.98 184.482C303.204 184.557 305.801 188.383 307.427 192.424C308.562 195.389 309.346 198.482 309.76 201.637C309.76 201.637 310.256 196.195 311.523 189.924C313.213 181.497 316.296 171.605 321.385 171.324C322.871 171.33 324.312 171.85 325.471 172.801C332.935 178.189 339.724 196.508 339.724 196.508C339.724 196.508 338.225 173.006 342.891 164.18C343.831 162.413 345.003 161.238 346.502 160.947C355.403 159.417 358.465 173.598 358.465 173.598C358.465 173.598 367.059 126.841 381.904 132.779C382.409 132.981 382.891 133.242 383.34 133.555C384.536 138.72 385.61 144.033 386.56 149.492C387.264 153.465 387.844 157.47 388.302 161.508C388.45 162.671 388.576 163.846 388.703 165.021C389.132 169.266 389.456 173.537 389.674 177.833C389.85 181.957 389.935 186.055 389.928 190.128Z" fill="black"/>
<path d="M61.2539 344.343L26.1904 330.248" stroke="#263238" stroke-linecap="round" stroke-linejoin="round"/>
<path d="M57.4744 334.634L14.6191 317.403" stroke="#263238" stroke-linecap="round" stroke-linejoin="round"/>
<path d="M130.864 327.381L39.1035 290.506" stroke="#263238" stroke-linecap="round" stroke-linejoin="round"/>
<path d="M283.164 287.694L78.168 197.984" stroke="#263238" stroke-linecap="round" stroke-linejoin="round"/>
<path d="M362.666 322.478L299.444 294.817" stroke="#263238" stroke-linecap="round" stroke-linejoin="round"/>
<path d="M61.2539 211.034L366.816 344.343" stroke="#263238" stroke-linecap="round" stroke-linejoin="round"/>
<path d="M352.69 417.069L289.479 389.408" stroke="#263238" stroke-linecap="round" stroke-linejoin="round"/>
<path d="M6.30909 47.7356H123.187C123.187 47.7356 120.02 45.3756 117.169 43.4899C114.318 41.6041 109.778 43.4899 107.445 43.4899C105.112 43.4899 105.091 40.6666 100.054 37.3691C95.0182 34.0717 89.433 39.2118 85.2731 38.3066C81.1132 37.4015 83.4149 30.7635 78.3575 27.4661C73.3002 24.1686 71.8854 29.3626 66.807 26.0544C61.7285 22.7462 66.807 9.07158 47.8763 9.50261C28.9456 9.93365 28.006 23.1773 28.006 23.1773C14.1537 29.298 21.0799 35.3864 19.2322 37.7786C17.3845 40.1709 15.0723 37.7786 10.0044 40.6127C4.93653 43.4468 6.30909 47.7356 6.30909 47.7356Z" stroke="#263238" stroke-miterlimit="10"/>
<path d="M435.792 103.77C431.569 101.4 429.594 103.372 428.042 101.4C426.49 99.4276 432.265 94.2767 420.651 89.1366C420.651 89.1366 419.881 78.0266 403.991 77.6602C388.101 77.2939 392.377 88.781 388.101 91.5504C383.825 94.3198 382.663 89.9663 378.409 92.7358C374.154 95.5052 376.086 101.076 372.602 101.831C369.117 102.585 364.44 98.2746 360.206 101.044C355.973 103.813 355.983 106.184 353.998 106.184C352.013 106.184 348.191 104.6 345.837 106.184C343.482 107.768 340.79 109.751 340.79 109.751H438.854C438.854 109.751 440.015 106.141 435.792 103.77Z" stroke="#263238" stroke-miterlimit="10"/>
<path d="M218.358 140.99C218.358 141.583 225.485 160.818 228.125 164.277C230.764 167.736 232.475 171.152 248.956 171.766C265.437 172.381 263.23 169.87 264.73 165.98C266.229 162.09 241.28 153.329 241.28 153.329C237.894 146.581 235.662 139.292 234.681 131.777C233.224 119.708 218.358 140.99 218.358 140.99Z" fill="white"/>
<path d="M137.663 356.358C133.83 348.901 125.806 345.377 119.049 347.888L109.547 351.175L111.226 356.056C110.459 358.305 110.157 360.692 110.339 363.066C110.52 365.439 111.182 367.749 112.281 369.849C113.825 372.899 116.206 375.423 119.134 377.112L122.005 382.112C122.005 382.112 131.508 378.556 132.447 378.039C139.437 374.332 141.76 364.375 137.663 356.358Z" fill="#263238"/>
<path d="M124.361 380.651C131.378 376.92 133.747 367.391 129.652 359.369C125.557 351.346 116.548 347.868 109.53 351.599C102.513 355.331 100.144 364.86 104.239 372.882C108.335 380.905 117.343 384.383 124.361 380.651Z" fill="white" stroke="#263238" stroke-linecap="round" stroke-linejoin="round"/>
<path d="M122.089 363.858C123.536 367.252 122.406 371.035 119.566 372.295C116.726 373.556 113.231 371.832 111.795 368.438C110.359 365.043 111.468 361.261 114.318 360C117.169 358.739 120.643 360.463 122.089 363.858Z" fill="white" stroke="#263238" stroke-linecap="round" stroke-linejoin="round"/>
<path d="M155.02 350.582L257.825 379.903L234.417 396.994L124.043 366.293L155.02 350.582Z" fill="white" stroke="#263238" stroke-linecap="round" stroke-linejoin="round"/>
<path d="M215.477 369.44C215.502 369.615 215.502 369.793 215.477 369.968C214.495 374.602 206.893 376.843 200.526 375.625C194.16 374.408 183.454 370.679 179.231 370.776C175.007 370.873 167.353 372.037 164.017 365.604C163.257 364.066 163.027 362.313 163.362 360.625C164.228 355.097 169.243 348.836 170.552 343.599C172.294 336.703 185.471 347.091 185.471 347.091C185.471 347.091 186.368 352.479 192.861 355.873C199.186 359.149 215.192 364.86 215.477 369.44Z" fill="#FFE393"/>
<path d="M71.326 347.942C71.7589 354.461 74.8841 380.27 69.5206 383.944C68.9412 384.348 68.2874 384.626 67.599 384.763C67.469 384.772 67.3385 384.772 67.2084 384.763H66.955H66.86C62.3728 384.893 58.0756 378.459 56.133 375.593C53.7891 372.145 49.4286 366.552 49.0379 361.724C48.6473 356.897 49.8614 351.293 49.228 347.403C48.5428 342.569 48.2884 337.682 48.4678 332.802C48.7001 330.032 52.691 324.547 56.0274 322.5C56.3873 322.265 56.7611 322.053 57.1465 321.864C60.314 320.323 73.3426 331.929 73.3426 331.929C73.3426 331.929 70.8826 341.422 71.326 347.942Z" fill="#FFE393"/>
<path d="M215.477 369.44C215.502 369.615 215.502 369.793 215.477 369.968C214.495 374.602 206.893 376.843 200.526 375.625C194.16 374.408 183.454 370.679 179.231 370.776C175.007 370.873 167.353 372.037 164.017 365.604C163.257 364.066 163.027 362.313 163.362 360.625C165.072 362.576 167.881 365.334 170.679 366.293C175.176 367.845 184.404 367.63 187.857 369.526C191.066 371.196 207.347 373.459 215.477 369.44Z" fill="white"/>
<path d="M239.475 128.232C239.223 129.414 238.87 130.572 238.419 131.691C233.33 144.622 218.126 145.699 218.126 145.699L210.905 129.74C210.905 129.74 207.948 133.156 209.553 139.837C210.72 144.508 210.72 149.402 209.553 154.072C208.497 157.93 200.895 164.256 199.597 177.37C198.647 186.885 183.696 201.26 183.696 201.26C176.809 201.32 169.947 200.399 163.309 198.523C146.511 193.62 139.859 183.814 139.859 183.814L141.485 157.725C126.303 154.417 120.971 152.51 120.971 152.51C120.971 152.51 128.119 125.398 132.796 112.531C137.473 99.6647 155.242 97.4448 155.242 97.4448C155.242 97.4448 190.179 93.4685 198.267 90.0633C198.53 89.9591 198.787 89.8404 199.037 89.7077C205.372 86.2271 208.212 93.5439 214.178 97.8004C219.742 101.788 236.93 124.74 239.242 127.887L239.475 128.232Z" fill="#FFE393"/>
<path d="M67.5992 384.763C67.4691 384.772 67.3386 384.772 67.2085 384.763H66.9552H66.8601C62.3729 384.893 58.0758 378.459 56.1331 375.593C53.7892 372.145 49.4287 366.552 49.0381 361.724C48.6474 356.897 49.8616 351.293 49.2281 347.403C48.5681 342.365 48.3491 337.277 48.5735 332.198C48.8058 329.418 52.7967 324.44 56.0275 322.392L57.474 325C57.474 325 52.9657 329.817 53.4725 335.571C53.9792 341.326 53.4725 351.789 53.4725 358.492C53.4725 365.194 63.3126 379.817 71.7169 379.817C71.6852 379.903 70.0698 384.235 67.5992 384.763Z" fill="white"/>
<path opacity="0.2" d="M239.221 127.887C239.158 128.426 239.084 128.964 238.978 129.492C238.833 130.221 238.646 130.941 238.419 131.648C233.33 144.579 218.126 145.656 218.126 145.656L210.904 129.74C210.904 129.74 207.948 133.156 209.553 139.837C210.719 144.508 210.719 149.402 209.553 154.072C208.497 157.93 200.895 164.256 199.597 177.37C198.647 186.885 183.696 201.26 183.696 201.26C176.809 201.32 169.947 200.399 163.309 198.523C164.502 193.868 167.183 189.665 169.211 185.269C171.586 180.128 173.022 173.814 170.15 168.932C168.408 165.947 165.04 163.049 166.18 159.762C171.206 160.84 176.316 161.917 181.437 161.497C186.558 161.077 191.773 158.9 194.751 154.633C200.448 146.049 203.467 135.906 203.408 125.538C203.483 119.399 201.807 113.371 198.583 108.188C195.131 103.005 192.871 97.1 197.073 91.378C197.431 90.8939 197.831 90.4431 198.266 90.031C198.529 89.9267 198.787 89.808 199.037 89.6754C205.372 86.1948 208.212 93.5116 214.178 97.7681C219.721 101.788 236.909 124.826 239.221 127.887Z" fill="black"/>
<path d="M190.559 33.6945C190.559 33.6945 200.99 58.4037 205.003 70.8068C209.015 83.2098 190.559 93.7056 190.559 93.7056L202.648 91.3241C202.648 91.3241 202.416 107.962 190.559 112.402C178.702 116.841 162.189 106.324 155.021 96.1194L162.052 79.9555C162.052 79.9555 150.1 44.7506 162.052 36.3454C174.004 27.9402 190.559 33.6945 190.559 33.6945Z" fill="white"/>
<path d="M201.824 59.0934C198.467 59.5244 197.126 41.3023 192.533 39.1795C188.194 37.1644 178.945 38.242 170.678 40.9683L169.168 41.4855C169.168 41.4855 160.363 43.5114 160.943 50.5481C161.524 57.5847 168.334 73.6409 162.464 78.5654C161.469 79.4173 160.224 79.9065 158.927 79.9555C157.937 80.0043 156.947 79.873 156.002 79.5676C150.354 77.7357 143.839 70.1387 140.777 59.0934C136.406 43.3928 144.135 20.3001 169.147 17.9832H169.464C194.233 15.828 201.391 35.6773 202.342 41.4747C203.292 47.2722 207.832 58.339 201.824 59.0934Z" fill="#FFE393"/>
<path d="M301.588 395.194C296.214 384.677 284.864 379.709 275.341 383.341L261.9 387.975L264.265 394.86C263.182 398.022 262.754 401.378 263.009 404.717C263.263 408.056 264.195 411.305 265.744 414.257C267.917 418.564 271.279 422.127 275.415 424.505L279.459 431.552C279.459 431.552 292.804 426.552 294.187 425.809C304.091 420.55 307.364 406.52 301.588 395.194Z" fill="#263238"/>
<path d="M282.835 429.47C292.732 424.207 296.073 410.767 290.297 399.451C284.52 388.135 271.814 383.228 261.916 388.491C252.018 393.755 248.677 407.195 254.454 418.511C260.23 429.827 272.937 434.733 282.835 429.47Z" fill="white" stroke="#263238" stroke-linecap="round" stroke-linejoin="round"/>
<path d="M279.617 405.776C281.665 410.571 280.071 415.895 276.059 417.63C272.046 419.365 267.148 416.972 265.099 412.242C263.051 407.511 264.645 402.123 268.657 400.334C272.669 398.546 277.579 400.992 279.617 405.776Z" fill="white" stroke="#263238" stroke-linecap="round" stroke-linejoin="round"/>
<path d="M178.058 61.1731C178.058 61.1731 172.779 58.5869 169.179 62.3692C169.179 62.3261 171.396 54.158 178.058 61.1731Z" fill="#263238"/>
<path d="M188.912 57.3046C188.912 57.3046 187.856 48.6839 194.602 50.9361C194.602 50.9361 189.788 52.8218 188.912 57.3046Z" fill="#263238"/>
<path d="M141.475 157.736L120.644 153.577C120.644 153.577 114.953 168.415 117.413 180.269C117.413 180.269 136.903 185.42 145.635 187.553C154.366 189.687 162.982 187.683 174.332 184.417C185.682 181.152 193.03 178.135 195.205 179.557C197.38 180.98 194.519 182.952 197.317 183.297C200.114 183.642 202.163 180.269 201.223 172.866C200.283 165.463 194.35 164.504 188.057 165.258C181.764 166.012 179.378 171.486 170.108 170.172C160.838 168.857 148.887 165.042 141.918 165.258L141.475 157.736Z" fill="white"/>
<path d="M179.135 70.6237C179.135 70.6237 187.645 76.1733 195.806 71.1086C195.806 71.1086 193.198 78.1021 188.004 78.5871C182.809 79.072 179.135 70.6237 179.135 70.6237Z" fill="white" stroke="#263238" stroke-linecap="round" stroke-linejoin="round"/>
<path d="M184.741 46.5394C184.741 46.5394 187.56 40.3217 192.913 43.5114" stroke="#263238" stroke-linecap="round" stroke-linejoin="round"/>
<path d="M174.342 51.5501C174.342 51.5501 167.511 49.7397 164.84 54.8906" stroke="#263238" stroke-linecap="round" stroke-linejoin="round"/>
<path d="M169.179 41.4856C169.179 41.4856 160.374 43.5222 160.944 50.5481C161.514 57.574 168.334 73.6409 162.464 78.5655C156.594 83.4901 145.17 74.8478 140.799 59.0934C136.428 43.339 144.156 20.3001 169.179 17.9725C194.202 15.6449 201.402 35.6666 202.363 41.4856C203.324 47.3046 206.354 55.796 204.074 58.3391C201.793 60.8822 199.206 41.6795 194.571 39.5459C189.936 37.4123 177.794 38.3821 169.179 41.4856Z" stroke="#263238" stroke-linecap="round" stroke-linejoin="round"/>
<path d="M156.003 79.5677C160.416 77.6927 161.63 74.1798 161.018 69.3737C160.194 62.7896 156.795 56.7228 157.471 49.9124C158.115 43.9425 168.145 41.852 168.145 41.852" stroke="#263238" stroke-linecap="round" stroke-linejoin="round"/>
<path d="M192.312 38.8454C194.519 42.1392 196.261 45.7342 197.485 49.5244C198.953 54.7722 198.921 58.8886 203.186 58.1451" stroke="#263238" stroke-linecap="round" stroke-linejoin="round"/>
<path d="M155.317 61.7981C156.52 65.6235 155.612 69.3412 153.289 70.0848C150.967 70.8283 148.126 68.3606 146.954 64.5352C145.783 60.7097 146.659 56.992 148.982 56.2485C151.304 55.5049 154.123 58.0157 155.317 61.7981Z" stroke="#263238" stroke-linecap="round" stroke-linejoin="round"/>
<path d="M163.213 77.8112C163.213 77.8112 167.352 86.9707 166.381 93.7057C166.148 95.3005 158.156 98.3285 156.878 98.8781C146.595 103.49 133.207 106.551 130.821 119.794C128.086 134.967 114.055 163.609 117.37 180.269C117.37 180.269 136.786 186.81 150.543 188.361C164.301 189.913 186.758 178.663 193.399 180.269" stroke="#263238" stroke-linecap="round" stroke-linejoin="round"/>
<path d="M174.342 84.3953C174.342 84.3953 183.548 91.3242 192.914 89.3415C198.467 88.1669 200.6 85.4945 201.772 79.9987C203.267 73.1966 202.861 66.1027 200.6 59.5245C198.756 54.2084 196.911 48.8635 195.067 43.4899" stroke="#263238" stroke-linecap="round" stroke-linejoin="round"/>
<path d="M156.921 98.8782C156.921 98.8782 172.843 116.626 186.484 113.792C200.125 110.958 202.616 93.7057 202.616 93.7057" stroke="#263238" stroke-linecap="round" stroke-linejoin="round"/>
<path d="M188.849 89.6862C188.849 89.6862 188.849 95.279 190.327 95.9686C191.805 96.6583 203.799 89.4384 212.045 95.9686C219.594 101.938 233.805 120.829 239.496 128.232" stroke="#263238" stroke-linecap="round" stroke-linejoin="round"/>
<path d="M72.1918 334.752C73.7755 333.987 73.5643 331.519 74.4195 329.925C82.3275 315.496 94.6277 301.325 106.865 290.571C119.101 279.817 135.107 270.948 139.932 253.933C143.659 240.754 152.845 228.448 152.845 228.448C157.153 241.928 176.073 268.879 176.073 268.879C168.323 288.793 170.329 320.431 171.48 328.933C172.631 337.435 167.753 347.974 167.753 347.974C175.767 357.317 187.264 351.207 187.264 351.207C184.973 345.054 187.56 336.261 191.287 319.86C195.014 303.459 212.53 281.778 208.792 264.493C205.055 247.209 184.424 200.258 184.424 200.258C184.424 200.258 160.141 203.318 149.118 188.146L129.153 183.835C114.224 191.152 102.905 225.786 102.335 238.092C101.765 250.398 95.4407 265.926 95.4407 265.926C73.6488 277.629 67.0288 298.728 64.4421 306.94C61.8554 315.151 52.3848 325.097 52.3848 325.097C52.3848 325.097 59.2159 341.067 72.1918 334.752Z" fill="#263238"/>
<path d="M212.688 126.27C212.688 126.27 206.353 132.833 209.331 139.837C213.628 149.902 207.092 158.878 205.002 161.723" stroke="#263238" stroke-linecap="round" stroke-linejoin="round"/>
<path d="M210.683 128.986C210.683 128.986 215.465 139.202 217.936 145.742C217.936 145.742 237.046 143.975 239.475 128.232" stroke="#263238" stroke-linecap="round" stroke-linejoin="round"/>
<path d="M184.425 200.258C184.425 200.258 193.758 192.327 197.306 183.264" stroke="#263238" stroke-linecap="round" stroke-linejoin="round"/>
<path d="M74.4198 327.188C74.4198 327.188 70.3339 342.931 71.548 352.662C72.7622 362.392 74.1876 380.83 69.5209 383.912C64.8542 386.994 56.7562 378.136 51.4771 368.201C46.1981 358.265 50.0518 353.492 49.2388 347.479C48.4258 341.466 45.7863 330.647 52.9764 325.086" stroke="#263238" stroke-linecap="round" stroke-linejoin="round"/>
<path d="M71.8757 379.515C71.8757 379.515 68.5076 381.671 63.028 375.862C57.5483 370.054 53.5257 363.847 53.684 355.765C53.8424 347.683 54.4865 344.375 53.684 338.157C52.8816 331.94 54.497 329.052 56.123 327.188" stroke="#263238" stroke-linecap="round" stroke-linejoin="round"/>
<path d="M120.96 152.51C120.96 152.51 136.047 158.975 149.963 157.898L152.286 135.98" stroke="#263238" stroke-linecap="round" stroke-linejoin="round"/>
<path d="M151.694 147.617C153.282 144.086 155.543 140.914 158.346 138.286" stroke="#263238" stroke-linecap="round" stroke-linejoin="round"/>
<path d="M197.306 112.531C198.482 111.363 199.501 110.04 200.336 108.598" stroke="#263238" stroke-linecap="round" stroke-linejoin="round"/>
<path d="M179.779 118.242C184.504 118.672 189.25 117.707 193.452 115.462" stroke="#263238" stroke-linecap="round" stroke-linejoin="round"/>
<path d="M185.903 349.116C188.711 352.869 192.346 355.892 196.514 357.942C203.038 360.948 215.761 366.444 215.434 369.935C215.106 373.427 206.987 376.595 199.121 375.431C191.256 374.267 183.949 370.431 177.752 370.765C171.554 371.099 166.497 370.765 164.026 365.604C161.556 360.442 168.725 351.422 168.587 347.942" stroke="#263238" stroke-linecap="round" stroke-linejoin="round"/>
<path d="M163.848 360.733C165.41 363.026 167.488 364.903 169.908 366.207C171.808 367.285 173.836 367.145 175.916 367.285C182.25 367.759 188.226 369.623 194.392 371.078C200.727 372.565 212.922 371.908 215.445 368.923" stroke="#263238" stroke-linecap="round" stroke-linejoin="round"/>
<path d="M146.606 70.8068C144.716 75.6883 140.271 83.3608 134.876 87.6388C127.792 93.2531 118.564 96.141 112.926 103.264C107.805 109.729 106.591 118.9 108.703 126.971C110.814 135.042 115.903 141.993 122.016 147.499C122.016 147.499 127.042 134.04 128.478 128.975C129.914 123.911 132.046 111.227 139.036 107.348C146.025 103.469 162.126 97.4233 166.561 94.6539C170.995 91.8845 163.182 77.8543 163.182 77.8543C163.182 77.8543 155.591 83.9427 146.606 70.8068Z" fill="#263238"/>
<path d="M203.641 58.0159C207.135 67.3478 213.766 75.0203 219.256 83.2962C224.746 91.5721 229.328 101.335 227.84 111.206C227.778 111.954 227.539 112.675 227.143 113.307C227.143 113.307 214.621 96.6367 209.849 94.5785C205.076 92.5204 193.42 94.5786 190.327 95.9687C189.603 94.0756 189.107 92.0999 188.849 90.085C188.849 90.085 193.821 89.9557 197.295 87.6927C200.769 85.4298 203.461 79.8263 202.638 70.0095C201.814 60.1926 200.072 58.0159 200.072 58.0159H203.641Z" fill="#263238"/>
<path d="M184.372 54.9663C184.678 56.2271 185.027 57.4663 185.428 58.6948C185.676 59.8532 186.358 60.8666 187.328 61.5181C188.057 61.8844 188.954 61.8306 189.63 62.2939C189.94 62.5169 190.188 62.8174 190.35 63.1666C190.513 63.5157 190.585 63.9017 190.559 64.2875C190.498 65.0641 190.182 65.7969 189.662 66.3672" stroke="#263238" stroke-linecap="round" stroke-linejoin="round"/>
<path d="M272.141 371.864L227.871 173.394L240.953 170.161L284.716 366.283C284.716 366.283 286.289 377.058 272.141 371.864Z" fill="#263238"/>
<path d="M253.929 290.269C253.929 290.269 262.217 292.629 266.862 286.465" stroke="#263238" stroke-linecap="round" stroke-linejoin="round"/>
<path d="M258.416 308.017C258.416 308.017 265.807 311.411 270.473 305.194" stroke="#263238" stroke-linecap="round" stroke-linejoin="round"/>
<path d="M124.043 366.293V371.864L234.502 403.233L257.54 386.649L257.825 379.903L234.417 396.994L124.043 366.293Z" fill="#263238"/>
<path d="M146.637 354.828C146.637 354.828 143.29 340.701 132.078 337.985C120.865 335.27 112.017 339.472 105.218 346.412L108.765 347.942C108.765 347.942 117.856 343.449 124.602 347.091C129.778 349.992 133.814 354.628 136.026 360.216L146.637 354.828Z" fill="#263238"/>
<path d="M206.924 162.941C208.73 162.081 210.696 161.626 212.689 161.605C215.423 161.659 218.168 159.902 219.14 161.723C220.111 163.544 211.559 167.381 208.444 167.23" fill="white"/>
<path d="M206.924 162.941C208.73 162.081 210.696 161.626 212.689 161.605C215.423 161.659 218.168 159.902 219.14 161.723C220.111 163.544 211.559 167.381 208.444 167.23" stroke="#263238" stroke-linecap="round" stroke-linejoin="round"/>
<path d="M141.274 165.258C141.512 162.765 141.914 160.292 142.478 157.855" stroke="#263238" stroke-linecap="round" stroke-linejoin="round"/>
<path d="M162.052 159.385C161.809 159.115 176.157 165.85 186.61 160.893" stroke="#263238" stroke-linecap="round" stroke-linejoin="round"/>
<path d="M196.704 175.279C197.454 178.307 196.588 181.131 194.793 181.594C192.998 182.057 190.918 179.988 190.169 176.96C189.419 173.932 190.285 171.109 192.08 170.646C193.875 170.182 195.954 172.241 196.704 175.279Z" fill="#263238"/>
<path d="M273.271 157.014C274.021 160.042 273.166 162.865 271.36 163.329C269.555 163.792 267.496 161.723 266.746 158.695C265.997 155.667 266.852 152.844 268.657 152.381C270.463 151.917 272.532 153.997 273.271 157.014Z" fill="#263238"/>
<path d="M201.371 179.557L271.36 163.329L268.658 152.38L196.704 169.546L201.371 179.557Z" fill="#263238"/>
<path d="M262.438 151.508C262.438 151.508 264.55 149.471 266.503 149.611C268.457 149.751 271.022 163.975 270.009 166.012C268.995 168.049 266.503 166.993 266.503 166.993" fill="white"/>
<path d="M262.438 151.508C262.438 151.508 264.55 149.471 266.503 149.611C268.457 149.751 271.022 163.975 270.009 166.012C268.995 168.049 266.503 166.993 266.503 166.993" stroke="#263238" stroke-linecap="round" stroke-linejoin="round"/>
<path d="M284.812 367.576C284.812 367.576 297.027 364.612 309.095 381.466L294.905 390.992C294.905 390.992 272.913 368.567 244.543 395.518L245.24 388.589L270.484 367.597C270.484 367.597 279.3 375.679 284.812 367.576Z" fill="#263238"/>
<path d="M161.482 53.9317C161.482 53.9317 180.054 51.7765 180.613 38.8454C180.613 38.8454 168.503 39.5566 165.431 42.5955C162.358 45.6343 159.94 47.4338 161.482 53.9317Z" fill="#263238"/>
<path d="M256.42 153.124C256.42 153.124 256.694 149.687 259.228 149.891C261.762 150.096 267.01 160.419 266.471 165.247C265.933 170.075 261.857 168.372 261.857 168.372" fill="white"/>
<path d="M256.42 153.124C256.42 153.124 256.694 149.687 259.228 149.891C261.762 150.096 267.01 160.419 266.471 165.247C265.933 170.075 261.857 168.372 261.857 168.372" stroke="#263238" stroke-linecap="round" stroke-linejoin="round"/>
<path d="M250.392 156.734C250.392 156.734 250.719 152.337 252.704 151.605C254.689 150.872 258.859 154.837 261.214 159.374C263.568 163.911 262.122 170.096 260.316 170.15C258.511 170.204 257.951 163.103 256.42 161.034C254.889 158.965 250.392 156.734 250.392 156.734Z" fill="white" stroke="#263238" stroke-linecap="round" stroke-linejoin="round"/>
<path d="M200.346 162.941C200.346 162.941 205.382 160.053 206.934 162.941C208.486 165.829 210.925 176.034 208.497 178.318C206.068 180.603 203.218 178.318 203.218 178.318" fill="white"/>
<path d="M200.346 162.941C200.346 162.941 205.382 160.053 206.934 162.941C208.486 165.829 210.925 176.034 208.497 178.318C206.068 180.603 203.218 178.318 203.218 178.318" stroke="#263238" stroke-linecap="round" stroke-linejoin="round"/>
<path d="M188.849 165.258C188.849 165.258 196.408 160.796 198.826 161.723C201.244 162.65 203.134 168.113 204.168 171.109C205.203 174.105 204.095 179.029 201.371 179.557" fill="white"/>
<path d="M188.849 165.258C188.849 165.258 196.408 160.796 198.826 161.723C201.244 162.65 203.134 168.113 204.168 171.109C205.203 174.105 204.095 179.029 201.371 179.557" stroke="#263238" stroke-linecap="round" stroke-linejoin="round"/>
<path d="M130.863 171.993C130.863 171.993 136.396 163.846 147.682 165.807C158.969 167.768 170.308 173.092 179.779 168.749C189.25 164.406 192.871 165.215 195.806 165.516C199.206 165.85 200.441 167.995 201.212 172.876C201.877 177.079 200.409 183.652 197.305 183.307C194.201 182.963 197.664 177.445 195.806 174.159C193.948 170.872 191.192 170.322 188.848 171.163" stroke="#263238" stroke-linecap="round" stroke-linejoin="round"/>
<path d="M220.111 145.742C220.111 145.742 226.246 162.618 229.909 166.993C233.573 171.368 255.038 172.176 255.038 172.176C255.038 172.176 261.457 172.564 264.73 168.383" stroke="#263238" stroke-linecap="round" stroke-linejoin="round"/>
<path d="M235.61 136.982C235.61 136.982 237.078 148.264 241.28 153.329L250.392 156.734" stroke="#263238" stroke-linecap="round" stroke-linejoin="round"/>
<path opacity="0.5" d="M151.008 79.9987C146.643 89.1582 139.606 96.7134 130.863 101.626C116.325 109.632 117.317 124.255 124.708 130.613" stroke="white" stroke-linecap="round" stroke-linejoin="round"/>
<path opacity="0.5" d="M204.981 73.4145C206.745 80.4943 211.232 86.4965 215.466 92.3909C217.577 95.2788 219.626 98.3392 220.196 101.874" stroke="white" stroke-linecap="round" stroke-linejoin="round"/>
<path d="M149.118 228.415C154.967 225.503 161.291 223.717 167.774 223.146" stroke="white" stroke-linecap="round" stroke-linejoin="round"/>
<path opacity="0.2" d="M203.345 58.5654C202.887 58.8624 202.366 59.0434 201.825 59.0934C198.467 59.5245 197.126 41.3024 192.534 39.1795C191.904 38.8943 191.245 38.6811 190.57 38.5437C185.439 37.3907 176.718 38.7593 169.169 41.4856C169.169 41.4856 160.363 43.5114 160.944 50.5481C161.525 57.5848 168.335 73.6409 162.464 78.5655C161.469 79.4174 160.225 79.9066 158.927 79.9556C140.62 66.0439 151.125 38.8024 151.125 38.8024C166.001 33.7269 168.957 21.2268 169.485 17.9617C194.255 15.8066 201.413 35.6558 202.363 41.4532C203.208 46.7227 206.945 56.1624 203.345 58.5654Z" fill="black"/>
<path opacity="0.2" d="M160.944 50.5481C161.514 57.5848 168.335 73.6409 162.464 78.5655C161.47 79.4174 160.225 79.9065 158.928 79.9556C157.938 80.0043 156.948 79.873 156.003 79.5676C157.692 78.6194 161.282 76.0978 160.976 71.8736C160.638 66.3671 156.594 55.0955 157.365 50.5589C158.136 46.0222 163.974 42.186 169.148 40.7097C169.4 40.6129 169.673 40.5869 169.939 40.6343C170.204 40.6817 170.452 40.8007 170.658 40.9791L169.148 41.4963C169.148 41.4963 160.363 43.5114 160.944 50.5481Z" fill="black"/>
<path opacity="0.2" d="M203.345 58.5654C202.886 58.8624 202.365 59.0434 201.824 59.0934C198.467 59.5244 197.126 41.3023 192.533 39.1795C191.904 38.8942 191.245 38.681 190.569 38.5437C190.833 38.479 194.518 37.8756 197.749 43.8454C200.61 49.1364 200.673 54.783 203.345 58.5654Z" fill="black"/>
<path d="M220.459 396.994L263.219 331.918L273.661 370.582L234.501 403.233L220.459 396.994Z" fill="#263238"/>
<path d="M266.99 382.813C266.99 382.813 265.522 411.908 272.364 413.406C279.205 414.903 278.92 382.813 278.92 382.813C278.92 382.813 275.214 380.108 266.99 382.813Z" fill="#263238"/>
<path d="M116.029 345.841C116.029 345.841 111.806 366.843 116.937 368.276C122.068 369.709 124.602 347.091 124.602 347.091C123.336 346.288 121.92 345.763 120.444 345.547C118.968 345.332 117.465 345.432 116.029 345.841Z" fill="#263238"/>
</svg>
