<svg width="440" height="392" viewBox="0 0 440 392" fill="none" xmlns="http://www.w3.org/2000/svg">
<path d="M403.606 320.25C407.012 300.607 439.357 263.03 429.996 239.97C420.635 216.91 397.641 290.336 389.127 291.215C380.612 292.094 388.28 257.904 400.2 225.453C412.121 193.001 421.482 158.831 400.2 146.022C378.919 133.213 379.765 234.844 374.657 231.427C369.548 228.01 378.063 185.308 372.107 158.831C366.152 132.354 352.529 153.705 352.529 184.508C352.529 215.31 361.89 232.336 355.078 234.874C348.267 237.412 327.369 227.862 327.842 261.351C328.314 294.84 354.232 334.807 344.861 329.681C335.49 324.556 318.471 304.913 321.876 336.515C324.288 358.854 341.563 380.324 351.505 391H397.021C403.961 383.84 417.446 368.75 426.551 351.033C439.357 326.235 400.2 339.903 403.606 320.25Z" fill="#92E3A9"/>
<path d="M348.266 389.005C339.84 376.887 335.903 362.074 331.966 348.248C329.997 339.359 329.997 329.484 336.887 323.558C343.778 318.62 347.715 327.509 351.652 331.459C354.605 329.484 352.637 326.521 352.637 324.546C350.673 308.821 349.687 292.99 349.684 277.142C349.684 267.266 353.621 259.366 357.559 250.478C359.527 247.515 361.496 244.552 364.449 243.565C367.402 242.577 370.355 243.565 371.339 246.527C373.308 253.44 373.308 260.353 374.292 267.266C376.261 265.291 375.277 262.329 375.277 260.353C379.214 231.714 376.261 204.062 385.12 176.409C386.104 174.434 389.057 172.459 391.026 173.447C397.916 174.434 397.916 183.323 397.916 189.248C401.854 217.888 392.995 245.54 390.042 274.179C390.042 276.155 389.057 278.13 391.026 280.105C392.01 273.192 395.948 266.279 397.916 259.366C398.901 256.403 400.87 252.453 403.823 250.478C405.791 249.49 407.76 250.478 409.729 252.453C413.666 258.378 414.65 264.304 413.666 271.217C410.713 288.006 404.807 301.832 397.916 316.645L394.963 325.533C393.979 331.459 390.042 338.372 393.979 343.31C400.87 342.322 402.838 334.422 408.744 330.471C414.65 326.521 416.619 331.459 417.603 335.409C421.541 355.161 414.65 372.937 404.728 388.965" stroke="#263238" stroke-linecap="round" stroke-linejoin="round"/>
<path d="M375.838 385.232C375.838 385.232 373.545 339.083 379.293 296.983" stroke="#263238" stroke-linecap="round" stroke-linejoin="round"/>
<path d="M356.87 355.812L375.838 376.581L392.513 362.153" stroke="#263238" stroke-linecap="round" stroke-linejoin="round"/>
<path d="M370.66 303.906L375.838 330.432L390.79 303.906" stroke="#263238" stroke-linecap="round" stroke-linejoin="round"/>
<path d="M379.863 290.06L383.308 265.262" stroke="#263238" stroke-linecap="round" stroke-linejoin="round"/>
<path d="M107.388 87.834H45.3945V165.586H107.388V87.834Z" stroke="#263238" stroke-linecap="round" stroke-linejoin="round"/>
<path d="M184.885 87.834H122.892V165.586H184.885V87.834Z" stroke="#263238" stroke-linecap="round" stroke-linejoin="round"/>
<path d="M107.388 178.306H45.3945V256.058H107.388V178.306Z" stroke="#263238" stroke-linecap="round" stroke-linejoin="round"/>
<path d="M184.885 178.306H122.892V256.058H184.885V178.306Z" stroke="#263238" stroke-linecap="round" stroke-linejoin="round"/>
<path d="M107.388 268.778H45.3945V346.53H107.388V268.778Z" stroke="#263238" stroke-linecap="round" stroke-linejoin="round"/>
<path d="M184.885 268.778H122.892V346.53H184.885V268.778Z" stroke="#263238" stroke-linecap="round" stroke-linejoin="round"/>
<path d="M115.843 7.25781C97.5324 7.25781 79.9714 14.5557 67.0236 27.5461C54.0758 40.5365 46.8018 58.1552 46.8018 76.5264H184.885C184.885 58.1552 177.611 40.5365 164.663 27.5461C151.715 14.5557 134.154 7.25781 115.843 7.25781Z" stroke="#263238" stroke-linecap="round" stroke-linejoin="round"/>
<path d="M205.133 44.3909C205.133 44.3909 205.133 29.5772 179.787 32.54C154.44 35.5027 143.819 57.97 136.161 62.7005C128.502 67.431 114.348 71.5887 113.757 78.6696C113.166 85.7505 119.663 88.7232 113.166 94.0462C106.67 99.3692 96.7082 104.129 99.0214 111.23C101.335 118.331 107.881 125.421 104.927 130.162C101.974 134.902 93.7257 139.623 101.384 144.975C109.042 150.328 112.586 151.484 112.586 158.574C112.586 165.665 109.633 170.425 116.72 172.776C123.807 175.126 127.912 170.406 132.046 179.274C136.18 188.142 140.295 190.513 147.372 188.735C154.45 186.957 164.46 184.004 168.043 186.375C171.626 188.745 182.809 195.263 187.494 191.698C192.179 188.133 196.353 182.809 203.411 185.772C210.469 188.735 216.384 192.873 219.328 187.55C222.271 182.227 219.328 181.042 230.529 178.662C241.731 176.282 245.856 176.894 245.856 167.433C245.856 157.972 245.265 155.582 250.571 151.464C255.876 147.346 260.591 149.094 258.829 139.04C257.067 128.987 253.524 126.616 255.286 116.563C257.048 106.509 252.333 102.964 248.799 100.001C245.265 97.0385 241.141 91.7254 242.322 86.4023C243.503 81.0793 252.342 80.4769 243.493 71.0258C234.644 61.5747 230.529 64.5177 228.728 57.417C226.927 50.3163 221.05 34.9299 205.133 44.3909Z" fill="#263238" stroke="#263238" stroke-linecap="round" stroke-linejoin="round"/>
<path d="M182.503 62.1968C178.871 67.9642 176.066 74.4724 170.219 79.9731C161.773 87.8738 140.137 94.7868 139.084 102.213C138.031 109.64 141.722 113.857 134.34 120.207C126.957 126.557 115.342 128.108 115.342 134.507C115.342 140.907 118.502 142.98 116.927 147.741" stroke="#616161" stroke-miterlimit="10"/>
<path d="M198.194 55.0861C198.194 55.0861 195.556 48.1731 188.163 55.0861C187.592 55.6194 187.051 56.1725 186.539 56.7354" stroke="#616161" stroke-miterlimit="10"/>
<path d="M138.582 85.3456C132.086 86.9257 126.957 88.0614 126.426 92.6833C125.363 101.68 126.948 107.497 120.618 110.153C114.289 112.81 105.853 117.067 108.481 122.33C111.11 127.594 111.641 129.243 111.119 131.327" stroke="#616161" stroke-miterlimit="10"/>
<path d="M197.11 46.6128C197.11 46.6128 182.345 37.0925 174.471 45.5561C166.596 54.0196 170.248 64.6163 158.111 76.2697C155.028 79.1493 151.39 81.3643 147.421 82.7778" stroke="#616161" stroke-miterlimit="10"/>
<path d="M248.464 121.698C249.35 123.078 250.573 124.207 252.017 124.977" stroke="#616161" stroke-miterlimit="10"/>
<path d="M207.692 59.8762C207.692 59.8762 220.883 55.6395 224.042 63.0463C227.202 70.4531 228.797 83.6965 234.604 85.8198C240.412 87.9431 243.04 91.1132 243.04 102.757C243.033 106.509 243.591 110.242 244.694 113.827" stroke="#616161" stroke-miterlimit="10"/>
<path d="M122.202 154.091C126.425 147.178 132.223 149.864 132.754 142.447C133.286 135.031 129.063 132.917 133.276 128.157C137.489 123.397 144.36 121.244 144.36 121.244" stroke="#616161" stroke-miterlimit="10"/>
<path d="M128 168.924C126.05 167.304 124.357 165.396 122.979 163.265" stroke="#616161" stroke-miterlimit="10"/>
<path d="M274.106 390.971C274.106 390.971 275.868 366.726 265.247 342.471C254.626 318.216 252.234 316.468 252.234 309.367C252.234 302.267 259.341 293.981 260.522 278.012C261.703 262.043 261.112 254.31 261.112 254.31C261.112 254.31 286.459 294.524 304.148 296.894C321.836 299.264 332.448 282.703 325.961 260.226C319.474 237.748 291.174 219.419 279.982 204.625C268.79 189.831 243.424 189.811 230.46 189.811C217.496 189.811 211.009 185.081 208.647 176.213C206.285 167.344 206.294 149.548 206.294 149.548C206.294 149.548 190.958 159.009 165.021 148.363C165.021 148.363 167.383 180.894 164.43 185.624C161.477 190.355 157.383 195.174 139.694 195.174C122.005 195.174 107.27 198.729 99.021 207.025C90.7722 215.321 56.5762 248.424 47.7368 261.44C38.8974 274.457 43.6026 288.648 54.2138 293.971C64.825 299.294 75.4362 294.554 83.1042 287.463C90.7722 280.372 114.938 257.885 114.938 257.885C114.938 257.885 114.938 271.494 121.425 291.008C127.911 310.523 133.237 308.163 128.492 322.354C123.748 336.545 114.347 340.693 111.404 359.023C109.641 369.573 108.85 380.265 109.042 390.961" fill="#92E3A9"/>
<mask id="mask0_1_6473" style="mask-type:luminance" maskUnits="userSpaceOnUse" x="43" y="148" width="285" height="243">
<path d="M274.106 390.971C274.106 390.971 275.868 366.726 265.247 342.471C254.626 318.216 252.234 316.468 252.234 309.367C252.234 302.267 259.341 293.981 260.522 278.012C261.703 262.043 261.112 254.31 261.112 254.31C261.112 254.31 286.459 294.524 304.148 296.894C321.836 299.264 332.448 282.703 325.961 260.226C319.474 237.748 291.174 219.419 279.982 204.625C268.79 189.831 243.424 189.811 230.46 189.811C217.496 189.811 211.009 185.081 208.647 176.213C206.285 167.344 206.294 149.548 206.294 149.548C206.294 149.548 190.958 159.009 165.021 148.363C165.021 148.363 167.383 180.894 164.43 185.624C161.477 190.355 157.383 195.174 139.694 195.174C122.005 195.174 107.27 198.729 99.021 207.025C90.7722 215.321 56.5762 248.424 47.7368 261.44C38.8974 274.457 43.6026 288.648 54.2138 293.971C64.825 299.294 75.4362 294.554 83.1042 287.463C90.7722 280.372 114.938 257.885 114.938 257.885C114.938 257.885 114.938 271.494 121.425 291.008C127.911 310.523 133.237 308.163 128.492 322.354C123.748 336.545 114.347 340.693 111.404 359.023C109.641 369.573 108.85 380.265 109.042 390.961" fill="white"/>
</mask>
<g mask="url(#mask0_1_6473)">
<g opacity="0.2">
<path d="M235.421 208.358C235.017 208.358 233.541 209.345 235.421 212.219C237.301 209.365 235.825 208.358 235.421 208.358Z" fill="black"/>
<path d="M282.669 208.358C282.265 208.358 280.789 209.345 282.669 212.219C284.549 209.365 283.073 208.358 282.669 208.358Z" fill="black"/>
<path d="M282.669 232.06C282.265 232.06 280.789 233.047 282.669 235.921C284.549 233.067 283.073 232.06 282.669 232.06Z" fill="black"/>
<path d="M235.421 232.06C235.017 232.06 233.541 233.047 235.421 235.921C237.301 233.067 235.825 232.06 235.421 232.06Z" fill="black"/>
<path d="M259.045 220.209C258.641 220.209 257.165 221.196 259.045 224.07C260.925 221.216 259.449 220.209 259.045 220.209Z" fill="black"/>
<path d="M259.045 196.507C258.641 196.507 257.165 197.495 259.045 200.368C260.925 197.514 259.449 196.507 259.045 196.507Z" fill="black"/>
<path d="M236.483 212.812C239.889 212.999 240.007 211.212 239.81 210.837C239.614 210.461 237.95 209.74 236.483 212.812Z" fill="black"/>
<path d="M286.617 212.131L285.308 210.778C284.589 211.29 284.03 211.995 283.693 212.812C284.719 212.981 285.77 212.736 286.617 212.131Z" fill="black"/>
<path d="M260.108 224.663C263.514 224.85 263.632 223.063 263.435 222.688C263.239 222.312 261.575 221.591 260.108 224.663Z" fill="black"/>
<path d="M260.108 200.961C263.514 201.149 263.632 199.361 263.435 198.986C263.239 198.611 261.575 197.89 260.108 200.961Z" fill="black"/>
<path d="M278.319 210.866C278.122 211.212 278.25 212.999 281.646 212.841C280.14 209.74 278.525 210.511 278.319 210.866Z" fill="black"/>
<path d="M278.318 234.568C278.249 234.819 278.262 235.085 278.354 235.329C278.446 235.572 278.613 235.78 278.83 235.921C279.668 236.451 280.667 236.661 281.646 236.514C281.553 236.31 281.447 236.112 281.331 235.921C279.923 233.551 278.515 234.233 278.318 234.568Z" fill="black"/>
<path d="M254.695 222.717C254.498 223.063 254.626 224.851 258.022 224.693C256.516 221.592 254.901 222.362 254.695 222.717Z" fill="black"/>
<path d="M254.695 199.016C254.498 199.361 254.626 201.149 258.022 200.991C256.516 197.89 254.901 198.66 254.695 199.016Z" fill="black"/>
<path d="M235.421 279.464C235.017 279.464 233.541 280.451 235.421 283.325C237.301 280.471 235.825 279.464 235.421 279.464Z" fill="black"/>
<path d="M282.669 279.464C282.374 279.464 281.527 279.997 281.793 281.37C282.207 281.814 282.62 282.258 283.043 282.693C284.323 280.323 283.043 279.464 282.669 279.464Z" fill="black"/>
<path d="M235.421 303.165C235.017 303.165 233.541 304.153 235.421 307.027C237.301 304.172 235.825 303.165 235.421 303.165Z" fill="black"/>
<path d="M306.294 291.314C305.89 291.314 304.414 292.302 306.294 295.176C308.174 292.322 306.698 291.314 306.294 291.314Z" fill="black"/>
<path d="M235.421 255.762C235.017 255.762 233.541 256.749 235.421 259.623C237.301 256.769 235.825 255.762 235.421 255.762Z" fill="black"/>
<path d="M282.669 255.762C282.265 255.762 280.789 256.749 282.669 259.623C284.549 256.769 283.073 255.762 282.669 255.762Z" fill="black"/>
<path d="M259.045 267.613C258.641 267.613 257.165 268.6 259.045 271.474C260.925 268.62 259.449 267.613 259.045 267.613Z" fill="black"/>
<path d="M306.294 267.613C305.89 267.613 304.414 268.6 306.294 271.474C308.174 268.62 306.698 267.613 306.294 267.613Z" fill="black"/>
<path d="M259.045 243.911C258.641 243.911 257.165 244.898 259.045 247.772C260.925 244.918 259.449 243.911 259.045 243.911Z" fill="black"/>
<path d="M306.294 243.911C305.89 243.911 304.414 244.898 306.294 247.772C308.174 244.918 306.698 243.911 306.294 243.911Z" fill="black"/>
<path d="M236.483 283.917C239.889 284.105 240.007 282.318 239.81 281.942C239.614 281.567 237.95 280.846 236.483 283.917Z" fill="black"/>
<path d="M283.88 283.562L284.234 283.927C287.099 283.927 287.187 282.298 287.02 281.952C286.853 281.607 285.327 280.915 283.88 283.562Z" fill="black"/>
<path d="M239.023 305.318C238.592 305.31 238.173 305.457 237.842 305.733C237.641 305.892 237.457 306.071 237.291 306.266C237.093 306.505 236.915 306.759 236.759 307.027C236.762 307.046 236.762 307.066 236.759 307.086C236.67 307.244 236.572 307.422 236.483 307.619C237.462 307.768 238.462 307.558 239.299 307.027C239.369 306.973 239.434 306.913 239.495 306.849C239.594 306.743 239.677 306.623 239.742 306.493C239.838 306.38 239.896 306.239 239.909 306.091C239.923 305.943 239.89 305.794 239.815 305.665C239.741 305.537 239.629 305.434 239.494 305.372C239.359 305.31 239.208 305.291 239.062 305.318H239.023Z" fill="black"/>
<path d="M307.356 295.768C310.752 295.956 310.88 294.168 310.684 293.793C310.487 293.418 308.823 292.697 307.356 295.768Z" fill="black"/>
<path d="M236.483 260.215C239.889 260.403 240.007 258.616 239.81 258.24C239.614 257.865 237.95 257.144 236.483 260.215Z" fill="black"/>
<path d="M287.02 258.27C286.814 257.914 285.199 257.144 283.693 260.245C287.089 260.403 287.217 258.616 287.02 258.27Z" fill="black"/>
<path d="M260.108 272.066C260.394 272.081 260.679 272.081 260.965 272.066C260.965 271.573 261.014 271.079 261.034 270.625C260.661 271.06 260.35 271.546 260.108 272.066Z" fill="black"/>
<path d="M307.356 272.066C310.752 272.254 310.88 270.467 310.684 270.091C310.487 269.716 308.823 268.995 307.356 272.066Z" fill="black"/>
<path d="M260.108 248.364C263.514 248.552 263.632 246.765 263.435 246.389C263.239 246.014 261.575 245.293 260.108 248.364Z" fill="black"/>
<path d="M307.356 248.364C310.752 248.552 310.88 246.765 310.684 246.389C310.487 246.014 308.823 245.293 307.356 248.364Z" fill="black"/>
<path d="M256.457 295.689L256.998 294.218C255.856 293.033 254.852 293.546 254.695 293.823C254.537 294.099 254.586 295.344 256.457 295.689Z" fill="black"/>
<path d="M325.567 281.972C325.493 282.254 325.518 282.554 325.638 282.82C325.758 283.086 325.966 283.302 326.226 283.433C326.433 282.861 326.61 282.268 326.778 281.666C326.568 281.594 326.342 281.585 326.127 281.64C325.912 281.694 325.718 281.809 325.567 281.972Z" fill="black"/>
<path d="M301.943 293.823C301.736 294.168 301.874 295.956 305.27 295.798C303.764 292.697 302.15 293.467 301.943 293.823Z" fill="black"/>
<path d="M278.319 258.27C278.122 258.616 278.25 260.403 281.646 260.245C280.14 257.144 278.525 257.914 278.319 258.27Z" fill="black"/>
<path d="M254.695 270.121C254.498 270.467 254.626 272.254 258.022 272.096C256.516 268.995 254.901 269.765 254.695 270.121Z" fill="black"/>
<path d="M301.943 270.121C301.736 270.467 301.874 272.254 305.27 272.096C303.764 268.995 302.15 269.765 301.943 270.121Z" fill="black"/>
<path d="M254.695 246.419C254.498 246.765 254.626 248.552 258.022 248.394C256.516 245.293 254.901 246.064 254.695 246.419Z" fill="black"/>
<path d="M301.943 246.419C301.736 246.765 301.874 248.552 305.27 248.394C303.764 245.293 302.15 246.064 301.943 246.419Z" fill="black"/>
<path d="M286.509 235.921C286.726 235.779 286.893 235.572 286.985 235.329C287.077 235.085 287.089 234.819 287.02 234.568C286.824 234.232 285.416 233.58 284.008 235.921C283.891 236.112 283.786 236.31 283.693 236.514C284.672 236.662 285.672 236.452 286.509 235.921Z" fill="black"/>
<path d="M239.26 235.921C239.477 235.779 239.644 235.572 239.736 235.329C239.828 235.085 239.84 234.819 239.771 234.568C239.575 234.232 238.167 233.58 236.759 235.921C236.642 236.112 236.537 236.31 236.444 236.514C237.423 236.662 238.423 236.452 239.26 235.921Z" fill="black"/>
<path d="M235.421 350.569C235.017 350.569 233.541 351.556 235.421 354.43C237.301 351.576 235.825 350.569 235.421 350.569Z" fill="black"/>
<path d="M235.421 374.271C235.017 374.271 233.541 375.258 235.421 378.132C237.301 375.278 235.825 374.271 235.421 374.271Z" fill="black"/>
<path d="M259.045 362.42C258.641 362.42 257.165 363.407 259.045 366.281C260.925 363.427 259.449 362.42 259.045 362.42Z" fill="black"/>
<path d="M235.421 326.867C235.017 326.867 233.541 327.855 235.421 330.728C237.301 327.874 235.825 326.867 235.421 326.867Z" fill="black"/>
<path d="M259.045 338.718C258.641 338.718 257.165 339.705 259.045 342.579C260.925 339.725 259.449 338.718 259.045 338.718Z" fill="black"/>
<path d="M236.483 355.023C239.889 355.21 240.007 353.423 239.81 353.048C239.614 352.672 237.95 351.951 236.483 355.023Z" fill="black"/>
<path d="M239.023 376.424H238.817C238.563 376.442 238.317 376.52 238.098 376.651L237.842 376.828C237.404 377.188 237.037 377.627 236.759 378.122C236.642 378.313 236.537 378.511 236.444 378.715C237.423 378.863 238.423 378.653 239.26 378.122C239.477 377.98 239.644 377.773 239.736 377.53C239.828 377.286 239.84 377.02 239.771 376.769C239.679 376.661 239.564 376.574 239.435 376.514C239.306 376.454 239.165 376.424 239.023 376.424Z" fill="black"/>
<path d="M260.108 366.874C263.514 367.061 263.632 365.274 263.435 364.899C263.239 364.523 261.575 363.802 260.108 366.874Z" fill="black"/>
<path d="M236.483 331.321C239.889 331.509 240.007 329.721 239.81 329.346C239.614 328.971 237.95 328.25 236.483 331.321Z" fill="black"/>
<path d="M260.108 343.172C263.514 343.359 263.632 341.572 263.435 341.197C263.239 340.821 261.575 340.1 260.108 343.172Z" fill="black"/>
<path d="M254.695 364.928C254.498 365.274 254.626 367.062 258.022 366.903C256.516 363.802 254.901 364.573 254.695 364.928Z" fill="black"/>
<path d="M254.695 341.226C254.498 341.572 254.626 343.359 258.022 343.201C256.516 340.1 254.901 340.871 254.695 341.226Z" fill="black"/>
<path d="M259.045 386.121C258.641 386.121 257.165 387.109 259.045 389.983C260.925 387.129 259.449 386.121 259.045 386.121Z" fill="black"/>
<path d="M260.108 390.575C263.514 390.763 263.632 388.976 263.435 388.6C263.239 388.225 261.575 387.504 260.108 390.575Z" fill="black"/>
<path d="M254.695 388.63C254.498 388.976 254.626 390.763 258.022 390.605C256.516 387.504 254.901 388.274 254.695 388.63Z" fill="black"/>
<path d="M188.172 160.954C187.768 160.954 186.292 161.942 188.172 164.816C190.052 161.962 188.576 160.954 188.172 160.954Z" fill="black"/>
<path d="M165.109 149.429C165.109 149.963 165.188 150.703 165.247 151.632C165.434 151.289 165.521 150.9 165.496 150.51C165.472 150.121 165.338 149.746 165.109 149.429Z" fill="black"/>
<path d="M191.775 163.107C191.344 163.098 190.925 163.246 190.594 163.522C190.393 163.681 190.209 163.86 190.043 164.055C189.845 164.294 189.667 164.548 189.511 164.816V164.875C189.422 165.033 189.324 165.211 189.235 165.408C190.214 165.557 191.214 165.347 192.051 164.816C192.121 164.761 192.186 164.702 192.247 164.638C192.346 164.532 192.429 164.412 192.494 164.282C192.563 164.159 192.605 164.022 192.617 163.88C192.629 163.739 192.61 163.596 192.562 163.463C192.467 163.347 192.346 163.255 192.21 163.194C192.073 163.132 191.925 163.102 191.775 163.107Z" fill="black"/>
<path d="M165.611 153.557C169.017 153.745 169.135 151.958 168.938 151.582C168.742 151.207 167.078 150.486 165.611 153.557Z" fill="black"/>
<path d="M141.83 209.454C141.812 209.303 141.769 209.156 141.702 209.02C141.673 208.958 141.64 208.899 141.603 208.842C141.541 208.746 141.464 208.659 141.377 208.585C141.306 208.524 141.226 208.474 141.141 208.437C141.08 208.405 141.012 208.388 140.944 208.388C140.875 208.388 140.807 208.405 140.747 208.437C140.294 208.635 139.556 209.425 140.383 211.262C140.546 211.603 140.734 211.933 140.944 212.249C141.153 211.933 141.341 211.603 141.505 211.262C141.737 210.798 141.865 210.289 141.879 209.77C141.884 209.678 141.884 209.586 141.879 209.494L141.83 209.454Z" fill="black"/>
<path d="M188.172 208.358C187.768 208.358 186.292 209.345 188.172 212.219C190.052 209.365 188.576 208.358 188.172 208.358Z" fill="black"/>
<path d="M188.172 232.06C187.768 232.06 186.292 233.047 188.172 235.921C190.052 233.067 188.576 232.06 188.172 232.06Z" fill="black"/>
<path d="M141.83 233.156C141.812 233.005 141.769 232.858 141.702 232.721C141.673 232.66 141.64 232.6 141.603 232.544C141.541 232.447 141.464 232.361 141.377 232.287C141.306 232.226 141.226 232.176 141.141 232.139C141.08 232.107 141.012 232.09 140.944 232.09C140.875 232.09 140.807 232.107 140.747 232.139C140.294 232.336 139.556 233.126 140.383 234.963C140.546 235.305 140.734 235.635 140.944 235.951C141.153 235.635 141.341 235.305 141.505 234.963C141.737 234.5 141.865 233.991 141.879 233.472C141.884 233.38 141.884 233.288 141.879 233.195L141.83 233.156Z" fill="black"/>
<path d="M164.549 220.209C164.145 220.209 162.669 221.196 164.549 224.07C166.429 221.216 164.953 220.209 164.549 220.209Z" fill="black"/>
<path d="M211.797 220.209C211.393 220.209 209.917 221.196 211.797 224.07C213.677 221.216 212.201 220.209 211.797 220.209Z" fill="black"/>
<path d="M188.172 184.656C187.768 184.656 186.292 185.644 188.172 188.518C190.052 185.664 188.576 184.656 188.172 184.656Z" fill="black"/>
<path d="M164.549 196.507C164.145 196.507 162.669 197.495 164.549 200.368C166.429 197.514 164.953 196.507 164.549 196.507Z" fill="black"/>
<path d="M211.797 196.507C211.393 196.507 209.917 197.495 211.797 200.368C213.677 197.514 212.201 196.507 211.797 196.507Z" fill="black"/>
<path d="M141.987 212.812C145.393 212.999 145.511 211.212 145.314 210.837C145.118 210.461 143.454 209.74 141.987 212.812Z" fill="black"/>
<path d="M189.235 212.812C192.631 212.999 192.759 211.212 192.562 210.837C192.366 210.461 190.702 209.74 189.235 212.812Z" fill="black"/>
<path d="M165.611 224.663C169.017 224.85 169.135 223.063 168.938 222.688C168.742 222.312 167.078 221.591 165.611 224.663Z" fill="black"/>
<path d="M212.859 224.663C216.255 224.85 216.383 223.063 216.186 222.688C215.99 222.312 214.326 221.591 212.859 224.663Z" fill="black"/>
<path d="M189.235 189.11C192.631 189.298 192.759 187.51 192.562 187.135C192.366 186.76 190.702 186.039 189.235 189.11Z" fill="black"/>
<path d="M165.611 200.961C169.017 201.149 169.135 199.361 168.938 198.986C168.742 198.611 167.078 197.89 165.611 200.961Z" fill="black"/>
<path d="M212.859 200.961C216.255 201.149 216.383 199.361 216.186 198.986C215.99 198.611 214.326 197.89 212.859 200.961Z" fill="black"/>
<path d="M168.899 175.314C168.702 174.978 167.265 174.326 165.838 176.746C165.838 176.923 165.838 177.091 165.838 177.259C168.968 177.398 169.096 175.65 168.899 175.314Z" fill="black"/>
<path d="M183.821 210.866C183.625 211.212 183.753 212.999 187.149 212.841C185.642 209.74 184.028 210.511 183.821 210.866Z" fill="black"/>
<path d="M183.821 234.568C183.752 234.819 183.765 235.085 183.857 235.329C183.949 235.572 184.116 235.78 184.333 235.921C185.171 236.451 186.17 236.661 187.148 236.514C187.056 236.31 186.95 236.112 186.833 235.921C185.426 233.551 184.018 234.233 183.821 234.568Z" fill="black"/>
<path d="M160.197 222.717C160.001 223.063 160.129 224.851 163.525 224.693C162.018 221.592 160.404 222.362 160.197 222.717Z" fill="black"/>
<path d="M231.07 210.866C230.863 211.212 231.001 212.999 234.397 212.841C232.891 209.74 231.277 210.511 231.07 210.866Z" fill="black"/>
<path d="M234.082 235.921C232.675 233.551 231.267 234.233 231.07 234.568C231.001 234.819 231.014 235.085 231.106 235.329C231.198 235.572 231.365 235.78 231.582 235.921C232.419 236.452 233.419 236.663 234.397 236.514C234.305 236.31 234.199 236.112 234.082 235.921Z" fill="black"/>
<path d="M207.446 222.717C207.239 223.063 207.377 224.851 210.773 224.693C209.267 221.592 207.653 222.362 207.446 222.717Z" fill="black"/>
<path d="M183.821 187.165C183.625 187.51 183.753 189.298 187.149 189.14C185.642 186.039 184.028 186.809 183.821 187.165Z" fill="black"/>
<path d="M160.197 199.016C160.001 199.361 160.129 201.149 163.525 200.991C162.018 197.89 160.404 198.66 160.197 199.016Z" fill="black"/>
<path d="M207.446 199.016C207.239 199.361 207.377 201.149 210.773 200.991C209.267 197.89 207.653 198.66 207.446 199.016Z" fill="black"/>
<path d="M208.922 177.111C208.833 176.835 208.745 176.568 208.666 176.282C208.587 175.995 208.45 175.422 208.351 174.958C208.183 174.939 208.012 174.962 207.855 175.024C207.697 175.086 207.556 175.185 207.446 175.314C207.288 175.58 207.337 176.706 208.922 177.111Z" fill="black"/>
<path d="M186.834 164.816C186.678 164.548 186.5 164.294 186.302 164.055C186.139 163.858 185.954 163.679 185.751 163.522C185.42 163.246 185.001 163.099 184.57 163.107C184.427 163.109 184.286 163.141 184.157 163.202C184.028 163.264 183.913 163.353 183.822 163.463C183.774 163.597 183.755 163.739 183.767 163.88C183.779 164.022 183.821 164.159 183.891 164.283C183.956 164.412 184.039 164.532 184.137 164.638L184.334 164.816C185.171 165.345 186.17 165.555 187.149 165.408C187.06 165.211 186.962 165.033 186.873 164.875L186.834 164.816Z" fill="black"/>
<path d="M141.83 280.56C141.812 280.408 141.769 280.261 141.702 280.125C141.673 280.064 141.64 280.004 141.603 279.947C141.541 279.851 141.464 279.765 141.377 279.691C141.306 279.629 141.226 279.579 141.141 279.542C141.08 279.51 141.012 279.494 140.944 279.494C140.875 279.494 140.807 279.51 140.747 279.542C140.294 279.74 139.556 280.53 140.383 282.367C140.546 282.709 140.734 283.039 140.944 283.354C141.153 283.039 141.341 282.709 141.505 282.367C141.737 281.903 141.865 281.394 141.879 280.876C141.884 280.784 141.884 280.691 141.879 280.599L141.83 280.56Z" fill="black"/>
<path d="M188.172 279.464C187.768 279.464 186.292 280.451 188.172 283.325C190.052 280.471 188.576 279.464 188.172 279.464Z" fill="black"/>
<path d="M188.172 303.165C187.768 303.165 186.292 304.153 188.172 307.027C190.052 304.172 188.576 303.165 188.172 303.165Z" fill="black"/>
<path d="M141.83 304.261C141.812 304.11 141.769 303.963 141.702 303.827C141.673 303.765 141.64 303.706 141.603 303.649C141.541 303.553 141.464 303.466 141.377 303.392C141.306 303.331 141.226 303.281 141.141 303.244C141.08 303.211 141.012 303.194 140.944 303.194C140.875 303.194 140.807 303.211 140.747 303.244C140.294 303.442 139.556 304.232 140.383 306.069C140.546 306.411 140.734 306.74 140.944 307.056C141.153 306.74 141.341 306.411 141.505 306.069C141.737 305.605 141.865 305.096 141.879 304.577C141.884 304.485 141.884 304.393 141.879 304.301L141.83 304.261Z" fill="black"/>
<path d="M164.549 291.314C164.145 291.314 162.669 292.302 164.549 295.176C166.429 292.322 164.953 291.314 164.549 291.314Z" fill="black"/>
<path d="M211.797 291.314C211.393 291.314 209.917 292.302 211.797 295.176C213.677 292.322 212.201 291.314 211.797 291.314Z" fill="black"/>
<path d="M141.83 256.858C141.812 256.707 141.769 256.56 141.702 256.423C141.673 256.362 141.64 256.302 141.603 256.246C141.541 256.149 141.464 256.063 141.377 255.989C141.306 255.928 141.226 255.878 141.141 255.841C141.08 255.809 141.012 255.792 140.944 255.792C140.875 255.792 140.807 255.809 140.747 255.841C140.294 256.038 139.556 256.828 140.383 258.665C140.546 259.007 140.734 259.337 140.944 259.653C141.153 259.337 141.341 259.007 141.505 258.665C141.737 258.202 141.865 257.692 141.879 257.174C141.884 257.082 141.884 256.989 141.879 256.897L141.83 256.858Z" fill="black"/>
<path d="M188.172 255.762C187.768 255.762 186.292 256.749 188.172 259.623C190.052 256.769 188.576 255.762 188.172 255.762Z" fill="black"/>
<path d="M164.549 267.613C164.145 267.613 162.669 268.6 164.549 271.474C166.429 268.62 164.953 267.613 164.549 267.613Z" fill="black"/>
<path d="M211.797 267.613C211.393 267.613 209.917 268.6 211.797 271.474C213.677 268.62 212.201 267.613 211.797 267.613Z" fill="black"/>
<path d="M164.549 243.911C164.145 243.911 162.669 244.898 164.549 247.772C166.429 244.918 164.953 243.911 164.549 243.911Z" fill="black"/>
<path d="M211.797 243.911C211.393 243.911 209.917 244.898 211.797 247.772C213.677 244.918 212.201 243.911 211.797 243.911Z" fill="black"/>
<path d="M141.987 283.917C145.393 284.105 145.511 282.318 145.314 281.942C145.118 281.567 143.454 280.846 141.987 283.917Z" fill="black"/>
<path d="M189.235 283.917C192.631 284.105 192.759 282.318 192.562 281.942C192.366 281.567 190.702 280.846 189.235 283.917Z" fill="black"/>
<path d="M191.775 305.318C191.344 305.309 190.925 305.457 190.594 305.733C190.393 305.892 190.209 306.071 190.043 306.266C189.845 306.505 189.667 306.759 189.511 307.027V307.086C189.422 307.244 189.324 307.422 189.235 307.619C190.214 307.768 191.214 307.558 192.051 307.027C192.121 306.972 192.186 306.913 192.247 306.849C192.346 306.743 192.429 306.623 192.494 306.493C192.563 306.37 192.605 306.232 192.617 306.091C192.629 305.95 192.61 305.807 192.562 305.674C192.467 305.558 192.346 305.466 192.21 305.405C192.073 305.343 191.925 305.313 191.775 305.318Z" fill="black"/>
<path d="M144.527 305.318C144.096 305.31 143.677 305.457 143.346 305.733C143.145 305.892 142.961 306.071 142.794 306.266C142.597 306.505 142.419 306.759 142.263 307.027V307.086C142.174 307.244 142.076 307.422 141.987 307.619C142.966 307.768 143.966 307.558 144.803 307.027C144.872 306.973 144.938 306.913 144.999 306.849C145.098 306.743 145.181 306.623 145.245 306.493C145.341 306.38 145.4 306.239 145.413 306.091C145.426 305.943 145.394 305.794 145.319 305.665C145.245 305.537 145.132 305.434 144.998 305.372C144.863 305.31 144.712 305.291 144.566 305.318H144.527Z" fill="black"/>
<path d="M165.611 295.768C169.017 295.956 169.135 294.168 168.938 293.793C168.742 293.418 167.078 292.697 165.611 295.768Z" fill="black"/>
<path d="M212.859 295.768C216.255 295.956 216.383 294.168 216.186 293.793C215.99 293.418 214.326 292.697 212.859 295.768Z" fill="black"/>
<path d="M141.987 260.215C145.393 260.403 145.511 258.616 145.314 258.24C145.118 257.865 143.454 257.144 141.987 260.215Z" fill="black"/>
<path d="M189.235 260.215C192.631 260.403 192.759 258.616 192.562 258.24C192.366 257.865 190.702 257.144 189.235 260.215Z" fill="black"/>
<path d="M165.611 272.066C169.017 272.254 169.135 270.467 168.938 270.091C168.742 269.716 167.078 268.995 165.611 272.066Z" fill="black"/>
<path d="M212.859 272.066C216.255 272.254 216.383 270.467 216.186 270.091C215.99 269.716 214.326 268.995 212.859 272.066Z" fill="black"/>
<path d="M165.611 248.364C169.017 248.552 169.135 246.765 168.938 246.389C168.742 246.014 167.078 245.293 165.611 248.364Z" fill="black"/>
<path d="M212.859 248.364C216.255 248.552 216.383 246.765 216.186 246.389C215.99 246.014 214.326 245.293 212.859 248.364Z" fill="black"/>
<path d="M183.821 281.972C183.625 282.318 183.753 284.105 187.149 283.947C185.642 280.846 184.028 281.616 183.821 281.972Z" fill="black"/>
<path d="M160.197 293.823C160.001 294.168 160.129 295.956 163.525 295.798C162.018 292.697 160.404 293.467 160.197 293.823Z" fill="black"/>
<path d="M231.07 281.972C230.863 282.318 231.001 284.105 234.397 283.947C232.891 280.846 231.277 281.616 231.07 281.972Z" fill="black"/>
<path d="M207.446 293.823C207.239 294.168 207.377 295.956 210.773 295.798C209.267 292.697 207.653 293.467 207.446 293.823Z" fill="black"/>
<path d="M146.506 309.989C146.506 309.989 172.099 316.576 204.247 291.561C236.396 266.546 248.877 276.412 247.558 294.188C246.239 311.964 218.688 328.427 206.875 330.402C187.454 333.652 170.13 338.965 146.506 309.989Z" fill="black"/>
<path d="M183.821 258.27C183.625 258.616 183.753 260.403 187.149 260.245C185.642 257.144 184.028 257.914 183.821 258.27Z" fill="black"/>
<path d="M160.197 270.121C160.001 270.467 160.129 272.254 163.525 272.096C162.018 268.995 160.404 269.765 160.197 270.121Z" fill="black"/>
<path d="M231.07 258.27C230.863 258.616 231.001 260.403 234.397 260.245C232.891 257.144 231.277 257.914 231.07 258.27Z" fill="black"/>
<path d="M207.446 270.121C207.239 270.467 207.377 272.254 210.773 272.096C209.267 268.995 207.653 269.765 207.446 270.121Z" fill="black"/>
<path d="M160.197 246.419C160.001 246.765 160.129 248.552 163.525 248.394C162.018 245.293 160.404 246.064 160.197 246.419Z" fill="black"/>
<path d="M207.446 246.419C207.239 246.765 207.377 248.552 210.773 248.394C209.267 245.293 207.653 246.064 207.446 246.419Z" fill="black"/>
<path d="M192.012 235.921C192.229 235.779 192.396 235.572 192.488 235.329C192.58 235.085 192.592 234.819 192.523 234.568C192.326 234.232 190.919 233.58 189.511 235.921C189.394 236.112 189.289 236.31 189.196 236.514C190.175 236.662 191.175 236.452 192.012 235.921Z" fill="black"/>
<path d="M144.762 235.921C144.98 235.779 145.147 235.572 145.239 235.329C145.331 235.085 145.343 234.819 145.274 234.568C145.077 234.232 143.67 233.58 142.262 235.921C142.145 236.112 142.04 236.31 141.947 236.514C142.926 236.662 143.926 236.452 144.762 235.921Z" fill="black"/>
<path d="M141.83 351.665C141.812 351.514 141.769 351.367 141.702 351.23C141.673 351.169 141.64 351.109 141.603 351.053C141.541 350.956 141.464 350.87 141.377 350.796C141.306 350.735 141.226 350.685 141.141 350.648C141.08 350.615 141.012 350.598 140.944 350.598C140.875 350.598 140.807 350.615 140.747 350.648C140.294 350.845 139.556 351.635 140.383 353.472C140.546 353.814 140.734 354.144 140.944 354.46C141.153 354.144 141.341 353.814 141.505 353.472C141.737 353.009 141.865 352.5 141.879 351.981C141.884 351.889 141.884 351.796 141.879 351.704L141.83 351.665Z" fill="black"/>
<path d="M188.172 350.569C187.768 350.569 186.292 351.556 188.172 354.43C190.052 351.576 188.576 350.569 188.172 350.569Z" fill="black"/>
<path d="M188.172 374.271C187.768 374.271 186.292 375.258 188.172 378.132C190.052 375.278 188.576 374.271 188.172 374.271Z" fill="black"/>
<path d="M141.83 375.367C141.812 375.216 141.769 375.069 141.702 374.932C141.673 374.871 141.64 374.811 141.603 374.755C141.541 374.658 141.464 374.572 141.377 374.498C141.306 374.437 141.226 374.387 141.141 374.35C141.08 374.317 141.012 374.3 140.944 374.3C140.875 374.3 140.807 374.317 140.747 374.35C140.294 374.547 139.556 375.337 140.383 377.174C140.546 377.516 140.734 377.846 140.944 378.162C141.153 377.846 141.341 377.516 141.505 377.174C141.737 376.711 141.865 376.202 141.879 375.683C141.884 375.591 141.884 375.499 141.879 375.406L141.83 375.367Z" fill="black"/>
<path d="M164.549 362.42C164.145 362.42 162.669 363.407 164.549 366.281C166.429 363.427 164.953 362.42 164.549 362.42Z" fill="black"/>
<path d="M211.797 362.42C211.393 362.42 209.917 363.407 211.797 366.281C213.677 363.427 212.201 362.42 211.797 362.42Z" fill="black"/>
<path d="M141.83 327.963C141.812 327.812 141.769 327.665 141.702 327.529C141.673 327.467 141.64 327.408 141.603 327.351C141.541 327.255 141.464 327.168 141.377 327.094C141.306 327.033 141.226 326.983 141.141 326.946C141.08 326.913 141.012 326.896 140.944 326.896C140.875 326.896 140.807 326.913 140.747 326.946C140.294 327.144 139.556 327.934 140.383 329.771C140.546 330.112 140.734 330.442 140.944 330.758C141.153 330.442 141.341 330.112 141.505 329.771C141.737 329.307 141.865 328.798 141.879 328.279C141.884 328.187 141.884 328.095 141.879 328.003L141.83 327.963Z" fill="black"/>
<path d="M188.172 326.867C187.768 326.867 186.292 327.855 188.172 330.728C190.052 327.874 188.576 326.867 188.172 326.867Z" fill="black"/>
<path d="M164.549 338.718C164.145 338.718 162.669 339.705 164.549 342.579C166.429 339.725 164.953 338.718 164.549 338.718Z" fill="black"/>
<path d="M211.797 338.718C211.393 338.718 209.917 339.705 211.797 342.579C213.677 339.725 212.201 338.718 211.797 338.718Z" fill="black"/>
<path d="M164.549 315.016C164.145 315.016 162.669 316.004 164.549 318.878C166.429 316.023 164.953 315.016 164.549 315.016Z" fill="black"/>
<path d="M211.797 315.016C211.393 315.016 209.917 316.004 211.797 318.878C213.677 316.023 212.201 315.016 211.797 315.016Z" fill="black"/>
<path d="M141.987 355.023C145.393 355.21 145.511 353.423 145.314 353.048C145.118 352.672 143.454 351.951 141.987 355.023Z" fill="black"/>
<path d="M189.235 355.023C192.631 355.21 192.759 353.423 192.562 353.048C192.366 352.672 190.702 351.951 189.235 355.023Z" fill="black"/>
<path d="M191.775 376.424H191.569C191.315 376.442 191.069 376.52 190.85 376.651L190.594 376.828C190.156 377.188 189.789 377.627 189.511 378.122C189.394 378.313 189.289 378.511 189.196 378.715C190.175 378.863 191.175 378.653 192.012 378.122C192.229 377.98 192.396 377.773 192.488 377.53C192.58 377.286 192.592 377.02 192.523 376.769C192.431 376.661 192.316 376.574 192.187 376.514C192.058 376.454 191.917 376.424 191.775 376.424Z" fill="black"/>
<path d="M144.526 376.424H144.32C144.066 376.442 143.82 376.52 143.601 376.651L143.345 376.828C142.907 377.188 142.54 377.627 142.262 378.122C142.145 378.313 142.04 378.511 141.947 378.715C142.926 378.863 143.926 378.653 144.762 378.122C144.98 377.98 145.147 377.773 145.239 377.53C145.331 377.286 145.343 377.02 145.274 376.769C145.182 376.661 145.067 376.574 144.938 376.514C144.809 376.454 144.668 376.424 144.526 376.424Z" fill="black"/>
<path d="M165.611 366.874C169.017 367.061 169.135 365.274 168.938 364.899C168.742 364.523 167.078 363.802 165.611 366.874Z" fill="black"/>
<path d="M212.859 366.874C216.255 367.061 216.383 365.274 216.186 364.899C215.99 364.523 214.326 363.802 212.859 366.874Z" fill="black"/>
<path d="M141.987 331.321C145.393 331.509 145.511 329.721 145.314 329.346C145.118 328.971 143.454 328.25 141.987 331.321Z" fill="black"/>
<path d="M189.235 331.321C192.631 331.509 192.759 329.721 192.562 329.346C192.366 328.971 190.702 328.25 189.235 331.321Z" fill="black"/>
<path d="M165.611 343.172C169.017 343.359 169.135 341.572 168.938 341.197C168.742 340.821 167.078 340.1 165.611 343.172Z" fill="black"/>
<path d="M212.859 343.172C216.255 343.359 216.383 341.572 216.186 341.197C215.99 340.821 214.326 340.1 212.859 343.172Z" fill="black"/>
<path d="M165.611 319.47C169.017 319.658 169.135 317.87 168.938 317.495C168.742 317.12 167.078 316.399 165.611 319.47Z" fill="black"/>
<path d="M212.859 319.47C216.255 319.658 216.383 317.87 216.186 317.495C215.99 317.12 214.326 316.399 212.859 319.47Z" fill="black"/>
<path d="M183.821 353.077C183.625 353.423 183.753 355.21 187.149 355.052C185.642 351.951 184.028 352.722 183.821 353.077Z" fill="black"/>
<path d="M185.751 376.888L185.495 376.71C185.277 376.578 185.03 376.5 184.776 376.483H184.569C184.427 376.484 184.286 376.516 184.156 376.578C184.027 376.639 183.913 376.728 183.821 376.838C183.752 377.089 183.765 377.356 183.857 377.599C183.949 377.842 184.116 378.05 184.333 378.191C185.171 378.721 186.17 378.931 187.148 378.784C187.056 378.58 186.95 378.382 186.833 378.191C186.56 377.69 186.192 377.248 185.751 376.888Z" fill="black"/>
<path d="M160.197 364.928C160.001 365.274 160.129 367.062 163.525 366.903C162.018 363.802 160.404 364.573 160.197 364.928Z" fill="black"/>
<path d="M231.07 353.077C230.863 353.423 231.001 355.21 234.397 355.052C232.891 351.951 231.277 352.722 231.07 353.077Z" fill="black"/>
<path d="M234.082 378.132C233.805 377.637 233.438 377.198 233 376.838L232.744 376.66C232.525 376.53 232.279 376.452 232.025 376.433H231.818C231.676 376.435 231.535 376.467 231.405 376.528C231.276 376.59 231.162 376.679 231.07 376.789C231.001 377.04 231.014 377.306 231.106 377.549C231.198 377.793 231.365 378 231.582 378.142C232.419 378.673 233.419 378.883 234.397 378.734C234.305 378.531 234.199 378.333 234.082 378.142V378.132Z" fill="black"/>
<path d="M207.446 364.928C207.239 365.274 207.377 367.062 210.773 366.903C209.267 363.802 207.653 364.573 207.446 364.928Z" fill="black"/>
<path d="M183.821 329.376C183.625 329.721 183.753 331.509 187.149 331.351C185.642 328.25 184.028 329.02 183.821 329.376Z" fill="black"/>
<path d="M160.197 341.226C160.001 341.572 160.129 343.359 163.525 343.201C162.018 340.1 160.404 340.871 160.197 341.226Z" fill="black"/>
<path d="M231.07 329.376C230.863 329.721 231.001 331.509 234.397 331.351C232.891 328.25 231.277 329.02 231.07 329.376Z" fill="black"/>
<path d="M207.446 341.226C207.239 341.572 207.377 343.359 210.773 343.201C209.267 340.1 207.653 340.871 207.446 341.226Z" fill="black"/>
<path d="M160.197 317.525C160.001 317.87 160.129 319.658 163.525 319.5C162.018 316.399 160.404 317.169 160.197 317.525Z" fill="black"/>
<path d="M207.446 317.525C207.239 317.87 207.377 319.658 210.773 319.5C209.267 316.399 207.653 317.169 207.446 317.525Z" fill="black"/>
<path d="M186.834 307.027C186.678 306.759 186.5 306.504 186.302 306.266C186.139 306.068 185.954 305.889 185.751 305.733C185.42 305.457 185.001 305.309 184.57 305.318C184.427 305.319 184.286 305.352 184.157 305.413C184.028 305.474 183.913 305.563 183.822 305.674C183.774 305.807 183.755 305.949 183.767 306.091C183.779 306.232 183.821 306.37 183.891 306.493C183.956 306.623 184.039 306.742 184.137 306.849L184.334 307.027C185.171 307.556 186.17 307.766 187.149 307.619C187.06 307.422 186.962 307.244 186.873 307.086L186.834 307.027Z" fill="black"/>
<path d="M234.082 307.027C233.926 306.759 233.748 306.504 233.55 306.266C233.384 306.071 233.2 305.892 232.999 305.733C232.668 305.457 232.249 305.309 231.818 305.318C231.675 305.319 231.534 305.352 231.405 305.413C231.276 305.474 231.161 305.563 231.07 305.674C231.022 305.807 231.003 305.949 231.015 306.091C231.027 306.232 231.069 306.37 231.139 306.493C231.204 306.623 231.287 306.742 231.385 306.849C231.446 306.913 231.512 306.972 231.582 307.027C232.419 307.557 233.418 307.768 234.397 307.619C234.308 307.422 234.21 307.244 234.121 307.086C234.105 307.068 234.092 307.048 234.082 307.027Z" fill="black"/>
<path d="M164.549 386.121C164.145 386.121 162.669 387.109 164.549 389.983C166.429 387.129 164.953 386.121 164.549 386.121Z" fill="black"/>
<path d="M211.797 386.121C211.393 386.121 209.917 387.109 211.797 389.983C213.677 387.129 212.201 386.121 211.797 386.121Z" fill="black"/>
<path d="M165.611 390.575C169.017 390.763 169.135 388.976 168.938 388.6C168.742 388.225 167.078 387.504 165.611 390.575Z" fill="black"/>
<path d="M212.859 390.575C216.255 390.763 216.383 388.976 216.186 388.6C215.99 388.225 214.326 387.504 212.859 390.575Z" fill="black"/>
<path d="M160.197 388.63C160.001 388.976 160.129 390.763 163.525 390.605C162.018 387.504 160.404 388.274 160.197 388.63Z" fill="black"/>
<path d="M207.446 388.63C207.239 388.976 207.377 390.763 210.773 390.605C209.267 387.504 207.653 388.274 207.446 388.63Z" fill="black"/>
<path d="M93.6759 232.06C93.2723 232.06 91.7958 233.047 93.6759 235.921C95.556 233.067 94.0795 232.06 93.6759 232.06Z" fill="black"/>
<path d="M117.3 220.209C116.896 220.209 115.42 221.196 117.3 224.07C119.18 221.216 117.703 220.209 117.3 220.209Z" fill="black"/>
<path d="M118.167 197.416L116.365 197.88C116.425 198.784 116.751 199.65 117.3 200.368C118.216 198.986 118.363 198.028 118.167 197.416Z" fill="black"/>
<path d="M94.7393 212.812C98.1352 212.999 98.2632 211.212 98.0663 210.837C97.8695 210.461 96.2059 209.74 94.7393 212.812Z" fill="black"/>
<path d="M118.363 224.663C121.759 224.85 121.887 223.063 121.69 222.688C121.493 222.312 119.83 221.591 118.363 224.663Z" fill="black"/>
<path d="M118.363 200.961C121.759 201.149 121.887 199.361 121.69 198.986C121.493 198.611 119.83 197.89 118.363 200.961Z" fill="black"/>
<path d="M89.3253 234.568C89.2562 234.819 89.2687 235.085 89.3607 235.329C89.4527 235.572 89.6196 235.78 89.8371 235.921C90.6746 236.451 91.6735 236.661 92.6523 236.514C92.5595 236.31 92.4543 236.112 92.3374 235.921C90.9297 233.551 89.5221 234.233 89.3253 234.568Z" fill="black"/>
<path d="M136.573 210.866C136.366 211.212 136.504 212.999 139.9 212.841C138.394 209.74 136.78 210.511 136.573 210.866Z" fill="black"/>
<path d="M139.585 235.921C138.178 233.551 136.77 234.233 136.573 234.568C136.504 234.819 136.517 235.085 136.609 235.329C136.701 235.572 136.868 235.78 137.085 235.921C137.922 236.452 138.921 236.663 139.9 236.514C139.808 236.31 139.702 236.112 139.585 235.921Z" fill="black"/>
<path d="M112.949 222.717C112.742 223.063 112.88 224.851 116.276 224.693C114.77 221.592 113.156 222.362 112.949 222.717Z" fill="black"/>
<path d="M113.668 198.67L113.156 198.828C113.074 198.875 113.004 198.939 112.949 199.015C112.742 199.361 112.88 201.149 116.276 200.991C115.321 199.005 114.327 198.61 113.668 198.67Z" fill="black"/>
<path d="M46.4278 279.464C46.0243 279.464 44.5477 280.451 46.4278 283.325C48.3079 280.471 46.8314 279.464 46.4278 279.464Z" fill="black"/>
<path d="M70.0519 291.314C69.6483 291.314 68.1718 292.302 70.0519 295.176C71.9319 292.322 70.4554 291.314 70.0519 291.314Z" fill="black"/>
<path d="M93.6759 255.762C93.2723 255.762 91.7958 256.749 93.6759 259.623C95.556 256.769 94.0795 255.762 93.6759 255.762Z" fill="black"/>
<path d="M70.0519 267.613C69.6483 267.613 68.1718 268.6 70.0519 271.474C71.9319 268.62 70.4554 267.613 70.0519 267.613Z" fill="black"/>
<path d="M117.3 267.613C116.896 267.613 115.42 268.6 117.3 271.474C119.18 268.62 117.703 267.613 117.3 267.613Z" fill="black"/>
<path d="M70.0519 243.911C69.6483 243.911 68.1718 244.898 70.0519 247.772C71.9319 244.918 70.4554 243.911 70.0519 243.911Z" fill="black"/>
<path d="M117.3 243.911C116.896 243.911 115.42 244.898 117.3 247.772C119.18 244.918 117.703 243.911 117.3 243.911Z" fill="black"/>
<path d="M47.4902 283.917C50.8961 284.105 51.024 282.318 50.8173 281.942C50.6106 281.567 48.9569 280.846 47.4902 283.917Z" fill="black"/>
<path d="M71.6562 294.761C72.5323 294.435 73.3887 294.07 74.2352 293.655C73.8218 293.378 72.7587 293.191 71.6562 294.761Z" fill="black"/>
<path d="M50.7787 258.27C50.6627 258.121 50.4995 258.017 50.3161 257.974C49.7058 258.754 49.1251 259.495 48.623 260.196C50.8772 259.959 50.9559 258.576 50.7787 258.27Z" fill="black"/>
<path d="M94.7393 260.215C98.1352 260.403 98.2632 258.616 98.0663 258.24C97.8695 257.865 96.2059 257.144 94.7393 260.215Z" fill="black"/>
<path d="M71.1143 272.066C74.5201 272.254 74.6382 270.467 74.4413 270.091C74.2445 269.716 72.5809 268.995 71.1143 272.066Z" fill="black"/>
<path d="M118.363 272.066C121.759 272.254 121.887 270.467 121.69 270.091C121.493 269.716 119.83 268.995 118.363 272.066Z" fill="black"/>
<path d="M71.1143 248.364C74.5201 248.552 74.6382 246.765 74.4413 246.389C74.2445 246.014 72.5809 245.293 71.1143 248.364Z" fill="black"/>
<path d="M118.363 248.364C121.759 248.552 121.887 246.765 121.69 246.389C121.493 246.014 119.83 245.293 118.363 248.364Z" fill="black"/>
<path d="M65.7012 293.823C65.5142 294.139 65.6126 295.64 68.2014 295.798L68.9397 295.63C67.4632 292.736 65.9079 293.477 65.7012 293.823Z" fill="black"/>
<path d="M136.573 281.972C136.366 282.318 136.504 284.105 139.9 283.947C138.394 280.846 136.78 281.616 136.573 281.972Z" fill="black"/>
<path d="M89.3254 258.27C89.1285 258.616 89.2565 260.403 92.6524 260.245C91.1464 257.144 89.5321 257.914 89.3254 258.27Z" fill="black"/>
<path d="M65.7013 270.121C65.5045 270.467 65.6324 272.254 69.0284 272.096C67.5224 268.995 65.908 269.765 65.7013 270.121Z" fill="black"/>
<path d="M136.573 258.27C136.366 258.616 136.504 260.403 139.9 260.245C138.394 257.144 136.78 257.914 136.573 258.27Z" fill="black"/>
<path d="M65.7013 246.419C65.5045 246.765 65.6324 248.552 69.0284 248.394C67.5224 245.293 65.908 246.064 65.7013 246.419Z" fill="black"/>
<path d="M112.949 246.419C112.742 246.765 112.88 248.552 116.276 248.394C114.77 245.293 113.156 246.064 112.949 246.419Z" fill="black"/>
<path d="M97.5144 235.921C97.732 235.779 97.8988 235.572 97.9909 235.329C98.0829 235.085 98.0953 234.819 98.0263 234.568C97.8294 234.232 96.4218 233.58 95.0142 235.921C94.8973 236.112 94.7921 236.31 94.6992 236.514C95.6781 236.662 96.6777 236.452 97.5144 235.921Z" fill="black"/>
<path d="M117.3 362.42C116.896 362.42 115.42 363.407 117.3 366.281C119.18 363.427 117.703 362.42 117.3 362.42Z" fill="black"/>
<path d="M118.058 341.078L117.231 342.471L117.3 342.579C117.619 342.115 117.874 341.61 118.058 341.078Z" fill="black"/>
<path d="M118.363 366.874C121.759 367.061 121.887 365.274 121.69 364.899C121.493 364.523 119.83 363.802 118.363 366.874Z" fill="black"/>
<path d="M118.363 343.172C121.759 343.359 121.887 341.572 121.69 341.197C121.493 340.821 119.83 340.1 118.363 343.172Z" fill="black"/>
<path d="M136.573 353.077C136.366 353.423 136.504 355.21 139.9 355.052C138.394 351.951 136.78 352.722 136.573 353.077Z" fill="black"/>
<path d="M139.585 378.132C139.308 377.637 138.941 377.198 138.503 376.838L138.247 376.66C138.028 376.53 137.782 376.452 137.528 376.433H137.321C137.178 376.435 137.037 376.467 136.908 376.528C136.779 376.59 136.665 376.679 136.573 376.789C136.504 377.04 136.517 377.306 136.609 377.549C136.701 377.793 136.868 378 137.085 378.142C137.922 378.673 138.921 378.883 139.9 378.734C139.808 378.531 139.702 378.333 139.585 378.142V378.132Z" fill="black"/>
<path d="M112.949 364.928C112.742 365.274 112.88 367.062 116.276 366.903C114.77 363.802 113.156 364.573 112.949 364.928Z" fill="black"/>
<path d="M136.573 329.376C136.366 329.721 136.504 331.509 139.9 331.351C138.394 328.25 136.78 329.02 136.573 329.376Z" fill="black"/>
<path d="M139.586 307.027C139.43 306.759 139.252 306.504 139.054 306.266C138.888 306.071 138.704 305.892 138.503 305.733C138.172 305.457 137.752 305.309 137.322 305.318C137.179 305.319 137.038 305.352 136.909 305.413C136.78 305.474 136.665 305.563 136.574 305.674C136.526 305.807 136.507 305.949 136.519 306.091C136.531 306.232 136.573 306.37 136.643 306.493C136.708 306.623 136.79 306.742 136.889 306.849C136.95 306.913 137.016 306.972 137.086 307.027C137.922 307.557 138.922 307.768 139.901 307.619C139.812 307.422 139.714 307.244 139.625 307.086L139.586 307.027Z" fill="black"/>
<path d="M117.3 386.121C116.896 386.121 115.42 387.109 117.3 389.983C119.18 387.129 117.703 386.121 117.3 386.121Z" fill="black"/>
<path d="M118.363 390.575C121.759 390.763 121.887 388.976 121.69 388.6C121.493 388.225 119.83 387.504 118.363 390.575Z" fill="black"/>
<path d="M112.949 388.63C112.742 388.976 112.88 390.763 116.276 390.605C114.77 387.504 113.156 388.274 112.949 388.63Z" fill="black"/>
<path d="M44.1143 282.13C44.3098 282.74 44.5365 283.34 44.7935 283.927H45.4037C45.1048 283.244 44.6654 282.631 44.1143 282.13Z" fill="black"/>
</g>
</g>
<path d="M274.106 390.971C274.106 390.971 275.868 366.726 265.247 342.471C254.626 318.216 252.234 316.468 252.234 309.367C252.234 302.267 259.341 293.981 260.522 278.012C261.703 262.043 261.112 254.31 261.112 254.31C261.112 254.31 286.459 294.524 304.148 296.894C321.836 299.264 332.448 282.703 325.961 260.226C319.474 237.748 291.174 219.419 279.982 204.625C268.79 189.831 243.424 189.811 230.46 189.811C217.496 189.811 211.009 185.081 208.647 176.213C206.285 167.344 206.294 149.548 206.294 149.548C206.294 149.548 190.958 159.009 165.021 148.363C165.021 148.363 167.383 180.894 164.43 185.624C161.477 190.355 157.383 195.174 139.694 195.174C122.005 195.174 107.27 198.729 99.021 207.025C90.7722 215.321 56.5762 248.424 47.7368 261.44C38.8974 274.457 43.6026 288.648 54.2138 293.971C64.825 299.294 75.4362 294.554 83.1042 287.463C90.7722 280.372 114.938 257.885 114.938 257.885C114.938 257.885 114.938 271.494 121.425 291.008C127.911 310.523 133.237 308.163 128.492 322.354C123.748 336.545 114.347 340.693 111.404 359.023C109.641 369.573 108.85 380.265 109.042 390.961" stroke="#263238" stroke-linecap="round" stroke-linejoin="round"/>
<path d="M114.938 257.895C115.422 251.498 116.729 245.191 118.827 239.131L114.938 257.895Z" fill="white"/>
<path d="M114.938 257.895C115.422 251.498 116.729 245.191 118.827 239.131" stroke="#263238" stroke-linecap="round" stroke-linejoin="round"/>
<path d="M261.093 254.349C259.795 249.441 257.991 244.681 255.709 240.148" stroke="#263238" stroke-linecap="round" stroke-linejoin="round"/>
<path d="M174.5 319.905L211.629 307.965" stroke="#263238" stroke-linecap="round" stroke-linejoin="round"/>
<path d="M191.313 310.069C199.988 306.567 209.039 304.091 218.284 302.691" stroke="#263238" stroke-linecap="round" stroke-linejoin="round"/>
<path d="M180.958 234.835C210.37 240.523 221.719 212.239 225.666 189.634C215.872 188.547 210.714 183.975 208.667 176.282C206.314 167.393 206.314 149.617 206.314 149.617C206.314 149.617 190.978 159.078 165.041 148.432C165.041 148.432 167.403 180.963 164.45 185.693C162.403 188.992 159.765 192.29 152.382 193.979C152.116 204.131 154.154 229.64 180.958 234.835Z" fill="#B2B2B2"/>
<mask id="mask1_1_6473" style="mask-type:luminance" maskUnits="userSpaceOnUse" x="152" y="148" width="74" height="88">
<path d="M180.958 234.835C210.37 240.523 221.719 212.239 225.666 189.634C215.872 188.547 210.714 183.975 208.667 176.282C206.314 167.393 206.314 149.617 206.314 149.617C206.314 149.617 190.978 159.078 165.041 148.432C165.041 148.432 167.403 180.963 164.45 185.693C162.403 188.992 159.765 192.29 152.382 193.979C152.116 204.131 154.154 229.64 180.958 234.835Z" fill="white"/>
</mask>
<g mask="url(#mask1_1_6473)">
<path opacity="0.2" d="M208.027 173.358C206.314 164.016 206.314 149.656 206.314 149.656C206.314 149.656 190.978 159.117 165.041 148.471C165.041 148.471 166.025 162.07 165.927 172.963C188.252 180.745 201.166 177.447 208.027 173.358Z" fill="black"/>
</g>
<path d="M180.958 234.835C210.37 240.523 221.719 212.239 225.666 189.634C215.872 188.547 210.714 183.975 208.667 176.282C206.314 167.393 206.314 149.617 206.314 149.617C206.314 149.617 190.978 159.078 165.041 148.432C165.041 148.432 167.403 180.963 164.45 185.693C162.403 188.992 159.765 192.29 152.382 193.979C152.116 204.131 154.154 229.64 180.958 234.835Z" stroke="#263238" stroke-linecap="round" stroke-linejoin="round"/>
<path d="M225.43 138.319C229.464 138.319 232.734 135.038 232.734 130.991C232.734 126.944 229.464 123.663 225.43 123.663C221.396 123.663 218.126 126.944 218.126 130.991C218.126 135.038 221.396 138.319 225.43 138.319Z" fill="#92E3A9" stroke="#263238" stroke-linecap="round" stroke-linejoin="round"/>
<path d="M147.411 138.319C151.445 138.319 154.715 135.038 154.715 130.991C154.715 126.944 151.445 123.663 147.411 123.663C143.377 123.663 140.107 126.944 140.107 130.991C140.107 135.038 143.377 138.319 147.411 138.319Z" fill="#92E3A9" stroke="#263238" stroke-linecap="round" stroke-linejoin="round"/>
<path d="M224.761 106.016C224.761 106.016 228.413 94.6881 232.734 98.6878C237.056 102.687 231.405 118.005 228.413 121.669C225.421 125.333 222.438 125.333 222.773 120.335C223.108 115.338 224.761 106.016 224.761 106.016Z" fill="#B2B2B2" stroke="#263238" stroke-linecap="round" stroke-linejoin="round"/>
<path d="M149.262 117.412C149.262 117.412 150.246 143.869 169.657 156.846C189.068 169.823 203.489 162.337 211.452 151.355C219.416 140.373 224.396 129.391 224.396 113.422C224.396 97.4532 226.365 90.4513 220.912 80.4669C215.459 70.4825 196.53 65.4952 196.53 65.4952C188.666 75.3413 180.19 84.6793 171.153 93.4535C156.221 107.921 149.262 117.412 149.262 117.412Z" fill="#B2B2B2"/>
<mask id="mask2_1_6473" style="mask-type:luminance" maskUnits="userSpaceOnUse" x="149" y="65" width="76" height="99">
<path d="M149.263 117.412C149.263 117.412 150.247 143.869 169.658 156.846C189.069 169.823 203.49 162.337 211.453 151.355C219.417 140.373 224.397 129.391 224.397 113.422C224.397 97.4532 226.366 90.4513 220.913 80.4669C215.46 70.4825 196.531 65.4952 196.531 65.4952C188.667 75.3413 180.191 84.6793 171.154 93.4535C156.222 107.921 149.263 117.412 149.263 117.412Z" fill="white"/>
</mask>
<g mask="url(#mask2_1_6473)">
<path opacity="0.2" d="M196.531 65.4952C188.667 75.3413 180.191 84.6793 171.154 93.4535C156.222 107.921 149.263 117.412 149.263 117.412C149.623 122.567 150.639 127.655 152.285 132.552C178.507 112.425 192.83 76.2598 196.639 65.5249L196.531 65.4952Z" fill="black"/>
</g>
<path d="M149.262 117.412C149.262 117.412 150.246 143.869 169.657 156.846C189.068 169.823 203.489 162.337 211.452 151.355C219.416 140.373 224.396 129.391 224.396 113.422C224.396 97.4532 226.365 90.4513 220.912 80.4669C215.459 70.4825 196.53 65.4952 196.53 65.4952C188.666 75.3413 180.19 84.6793 171.153 93.4535C156.221 107.921 149.262 117.412 149.262 117.412Z" stroke="#263238" stroke-linecap="round" stroke-linejoin="round"/>
<path d="M167.62 114.301L178.792 115.348" stroke="#263238" stroke-linecap="round" stroke-linejoin="round"/>
<path d="M201.481 113.946C201.481 113.946 208.815 112.543 212.309 113.946" stroke="#263238" stroke-linecap="round" stroke-linejoin="round"/>
<path d="M177.286 109.176C177.286 111.842 176.095 114.005 174.628 114.005C173.162 114.005 171.98 111.842 171.98 109.176C171.98 106.509 173.162 104.346 174.628 104.346C176.095 104.346 177.286 106.509 177.286 109.176Z" fill="#263238"/>
<path d="M183.261 126.043C185.043 127.165 187.141 127.676 189.238 127.498C191.334 127.32 193.317 126.463 194.886 125.056" stroke="#263238" stroke-linecap="round" stroke-linejoin="round"/>
<path d="M186.283 137.322C186.283 137.322 196.57 141.657 202.545 127.663" stroke="#263238" stroke-linecap="round" stroke-linejoin="round"/>
<path d="M199.532 109.344C199.532 109.344 205.842 105.008 212.151 107.675" stroke="#263238" stroke-width="2" stroke-linecap="round" stroke-linejoin="round"/>
<path d="M197.544 98.3914C197.544 98.3914 204.513 91.3993 214.14 97.0582" stroke="#263238" stroke-width="2" stroke-linecap="round" stroke-linejoin="round"/>
<path d="M182.602 94.0163C182.602 94.0163 176.627 88.0217 168.319 93.6904" stroke="#263238" stroke-width="2" stroke-linecap="round" stroke-linejoin="round"/>
<path d="M47.7372 261.45C47.7372 261.45 37.126 273.301 37.126 285.695C37.126 298.089 44.1935 309.397 63.7032 327.094C83.2128 344.792 101.423 357.847 109.091 361.995C116.759 366.143 124.417 360.81 124.417 360.81C124.417 360.81 137.096 373.52 138.562 370.567C140.029 367.614 134.143 363.17 132.961 361.403C131.925 359.998 130.74 358.71 129.428 357.561C129.428 357.561 135.619 358.44 137.982 360.524C140.344 362.607 144.163 366.143 145.935 365.847C147.707 365.55 147.707 364.069 145.049 360.524C142.907 357.747 140.318 355.347 137.391 353.423C135.619 352.248 129.723 348.989 129.723 348.989C129.723 348.989 138.267 348.396 141.22 350.174C144.173 351.952 152.127 357.275 152.717 354.904C153.308 352.534 153.308 351.063 150.355 348.396C147.402 345.73 141.496 342.471 137.982 341.888C135.559 341.441 133.188 340.75 130.904 339.824C130.904 339.824 137.686 337.454 140.039 337.454C142.391 337.454 151.851 342.184 154.479 341.602C157.107 341.019 155.66 338.639 153.603 337.158C151.546 335.676 142.401 332.131 138.562 331.835C134.723 331.538 113.216 338.935 110.568 338.935C107.92 338.935 101.138 329.474 94.0602 316.754C86.9828 304.034 84.335 284.224 69.3041 277.429" fill="#92E3A9"/>
<mask id="mask3_1_6473" style="mask-type:luminance" maskUnits="userSpaceOnUse" x="37" y="261" width="119" height="111">
<path d="M47.7372 261.45C47.7372 261.45 37.126 273.301 37.126 285.695C37.126 298.089 44.1935 309.397 63.7032 327.094C83.2128 344.792 101.423 357.847 109.091 361.995C116.759 366.143 124.417 360.81 124.417 360.81C124.417 360.81 137.096 373.52 138.562 370.567C140.029 367.614 134.143 363.17 132.961 361.403C131.925 359.998 130.74 358.71 129.428 357.561C129.428 357.561 135.619 358.44 137.982 360.524C140.344 362.607 144.163 366.143 145.935 365.847C147.707 365.55 147.707 364.069 145.049 360.524C142.907 357.747 140.318 355.347 137.391 353.423C135.619 352.248 129.723 348.989 129.723 348.989C129.723 348.989 138.267 348.396 141.22 350.174C144.173 351.952 152.127 357.275 152.717 354.904C153.308 352.534 153.308 351.063 150.355 348.396C147.402 345.73 141.496 342.471 137.982 341.888C135.559 341.441 133.188 340.75 130.904 339.824C130.904 339.824 137.686 337.454 140.039 337.454C142.391 337.454 151.851 342.184 154.479 341.602C157.107 341.019 155.66 338.639 153.603 337.158C151.546 335.676 142.401 332.131 138.562 331.835C134.723 331.538 113.216 338.935 110.568 338.935C107.92 338.935 101.138 329.474 94.0602 316.754C86.9828 304.034 84.335 284.224 69.3041 277.429" fill="white"/>
</mask>
<g mask="url(#mask3_1_6473)">
<g opacity="0.2">
<path d="M46.4277 303.165C46.8313 303.165 48.3078 304.152 46.4277 307.026C48.3078 304.172 46.8313 303.165 46.4277 303.165Z" fill="black"/>
<path d="M70.0519 291.314C69.6483 291.314 68.1718 292.301 70.0519 295.175C71.9319 292.321 70.4554 291.314 70.0519 291.314Z" fill="black"/>
<path d="M50.7782 281.971C50.5715 281.616 48.9572 280.845 47.4512 283.946C50.857 284.104 50.985 282.317 50.7782 281.971Z" fill="black"/>
<path d="M50.4442 306.848C50.5425 306.742 50.6253 306.622 50.6902 306.493C50.7862 306.379 50.8448 306.239 50.858 306.09C50.8712 305.942 50.8384 305.793 50.764 305.665C50.6895 305.536 50.5772 305.433 50.4424 305.371C50.3076 305.309 50.1569 305.29 50.0111 305.318C49.5804 305.309 49.1611 305.456 48.8298 305.732C48.6293 305.892 48.4447 306.07 48.2786 306.266C48.0809 306.504 47.9031 306.758 47.7471 307.026H50.2473C50.3173 306.972 50.3831 306.912 50.4442 306.848Z" fill="black"/>
<path d="M74.4023 293.822C74.1956 293.467 72.5812 292.697 71.0752 295.798C74.481 295.956 74.5991 294.168 74.4023 293.822Z" fill="black"/>
<path d="M69.028 295.768C67.5219 292.696 65.9076 293.467 65.7009 293.793C65.4942 294.118 65.632 295.955 69.028 295.768Z" fill="black"/>
<path d="M46.4277 279.463V283.324C48.3078 280.47 46.8313 279.463 46.4277 279.463Z" fill="black"/>
<path d="M46.4277 303.165V307.026C48.3078 304.172 46.8313 303.165 46.4277 303.165Z" fill="black"/>
<path d="M93.6761 350.568C93.5016 350.604 93.3389 350.684 93.203 350.799C93.0671 350.915 92.9624 351.063 92.8984 351.23L94.562 352.454C94.8081 351.092 93.9714 350.568 93.6761 350.568Z" fill="black"/>
<path d="M117.3 362.419C117.052 362.48 116.83 362.62 116.667 362.817C116.504 363.015 116.408 363.259 116.395 363.515C116.986 363.469 117.574 363.39 118.156 363.278C118.11 363.068 118.004 362.876 117.852 362.724C117.701 362.572 117.509 362.466 117.3 362.419Z" fill="black"/>
<path d="M93.6759 326.866C93.2723 326.866 91.7958 327.854 93.6759 330.728C95.556 327.874 94.0795 326.866 93.6759 326.866Z" fill="black"/>
<path d="M117.3 342.579C119.18 339.725 117.704 338.718 117.3 338.718C116.897 338.718 115.41 339.725 117.3 342.579Z" fill="black"/>
<path d="M70.0513 318.877C71.9314 316.023 70.4549 315.016 70.0513 315.016C69.6477 315.016 68.1614 316.023 70.0513 318.877Z" fill="black"/>
<path d="M98.0271 353.077C97.8696 352.81 96.9247 352.306 95.832 353.363C96.3636 353.758 96.8951 354.133 97.4168 354.499C97.6637 354.366 97.8585 354.153 97.9693 353.895C98.0801 353.636 98.1005 353.348 98.0271 353.077Z" fill="black"/>
<path d="M94.7393 331.32C98.1352 331.508 98.2632 329.721 98.0663 329.345C97.8695 328.97 96.2059 328.249 94.7393 331.32Z" fill="black"/>
<path d="M118.363 343.171C121.759 343.359 121.887 341.571 121.69 341.196C121.493 340.821 119.83 340.1 118.363 343.171Z" fill="black"/>
<path d="M71.1152 319.469C74.521 319.657 74.6392 317.87 74.4423 317.494C74.2454 317.119 72.5819 316.398 71.1152 319.469Z" fill="black"/>
<path d="M139.556 355.032C138.709 354.361 137.932 353.817 137.341 353.413L136.652 352.978L136.573 353.077C136.376 353.413 136.504 355.082 139.556 355.032Z" fill="black"/>
<path d="M92.652 331.321C91.146 328.249 89.5316 329.02 89.3249 329.345C89.1182 329.671 89.256 331.508 92.652 331.321Z" fill="black"/>
<path d="M112.95 341.226C112.743 341.572 112.881 343.359 116.277 343.201C114.771 340.1 113.157 340.87 112.95 341.226Z" fill="black"/>
<path d="M65.7013 317.524C65.5045 317.87 65.6324 319.657 69.0284 319.499C67.5224 316.398 65.908 317.169 65.7013 317.524Z" fill="black"/>
<path d="M50.2671 307.026H47.7668C47.7697 307.046 47.7697 307.065 47.7668 307.085C47.6782 307.243 47.5798 307.421 47.4912 307.618C48.4573 307.757 49.4411 307.547 50.2671 307.026Z" fill="black"/>
<path d="M46.4278 279.463C46.0243 279.463 44.5477 280.45 46.4278 283.324V279.463Z" fill="black"/>
<path d="M46.4273 307.026V303.165C46.0237 303.165 44.5373 304.172 46.4273 307.026Z" fill="black"/>
<path d="M45.404 283.917C43.8979 280.846 42.2836 281.616 42.0769 281.942C41.8702 282.268 42.008 284.105 45.404 283.917Z" fill="black"/>
<path d="M44.5381 306.266C44.3721 306.07 44.1875 305.892 43.9869 305.732L43.918 305.683C44.2231 306.127 44.5283 306.582 44.9023 307.026H45.1189C44.9472 306.756 44.7529 306.502 44.5381 306.266Z" fill="black"/>
<path d="M45.1287 307.085C45.1258 307.065 45.1258 307.046 45.1287 307.026H44.9121L45.3452 307.618H45.4437C45.3157 307.421 45.2173 307.243 45.1287 307.085Z" fill="black"/>
</g>
</g>
<path d="M47.7372 261.45C47.7372 261.45 37.126 273.301 37.126 285.695C37.126 298.089 44.1935 309.397 63.7032 327.094C83.2128 344.792 101.423 357.847 109.091 361.995C116.759 366.143 124.417 360.81 124.417 360.81C124.417 360.81 137.096 373.52 138.562 370.567C140.029 367.614 134.143 363.17 132.961 361.403C131.925 359.998 130.74 358.71 129.428 357.561C129.428 357.561 135.619 358.44 137.982 360.524C140.344 362.607 144.163 366.143 145.935 365.847C147.707 365.55 147.707 364.069 145.049 360.524C142.907 357.747 140.318 355.347 137.391 353.423C135.619 352.248 129.723 348.989 129.723 348.989C129.723 348.989 138.267 348.396 141.22 350.174C144.173 351.952 152.127 357.275 152.717 354.904C153.308 352.534 153.308 351.063 150.355 348.396C147.402 345.73 141.496 342.471 137.982 341.888C135.559 341.441 133.188 340.75 130.904 339.824C130.904 339.824 137.686 337.454 140.039 337.454C142.391 337.454 151.851 342.184 154.479 341.602C157.107 341.019 155.66 338.639 153.603 337.158C151.546 335.676 142.401 332.131 138.562 331.835C134.723 331.538 113.216 338.935 110.568 338.935C107.92 338.935 101.138 329.474 94.0602 316.754C86.9828 304.034 84.335 284.224 69.3041 277.429" stroke="#263238" stroke-linecap="round" stroke-linejoin="round"/>
<path d="M153.554 337.148C151.487 335.676 142.352 332.121 138.513 331.825C134.675 331.528 113.167 338.925 110.519 338.925C107.871 338.925 101.089 329.464 94.0114 316.744C90.0741 309.683 87.5148 300.43 83.4298 292.44C61.7743 289.477 52.4919 302.178 48.2002 311.313C52.9786 316.934 58.1426 322.214 63.6543 327.114C83.1049 344.89 101.374 357.867 109.042 362.015C116.71 366.163 124.369 360.83 124.369 360.83C124.369 360.83 137.047 373.54 138.513 370.587C139.98 367.634 134.094 363.19 132.913 361.422C131.876 360.018 130.691 358.73 129.379 357.581C129.379 357.581 135.57 358.46 137.933 360.543C140.295 362.627 144.114 366.163 145.886 365.866C147.658 365.57 147.658 364.089 145 360.543C142.858 357.767 140.27 355.367 137.342 353.443C135.57 352.267 129.674 349.008 129.674 349.008C129.674 349.008 138.218 348.416 141.171 350.194C144.124 351.971 152.078 357.294 152.668 354.924C153.259 352.554 153.259 351.082 150.306 348.416C147.353 345.749 141.447 342.49 137.933 341.908C135.51 341.461 133.139 340.769 130.855 339.844C130.855 339.844 137.637 337.474 139.99 337.474C142.343 337.474 151.802 342.204 154.43 341.621C157.058 341.039 155.611 338.629 153.554 337.148Z" fill="#B2B2B2" stroke="#263238" stroke-linecap="round" stroke-linejoin="round"/>
<path d="M281.528 272.55C279.067 266.911 281.173 254.567 283.634 236.939C286.095 219.31 288.556 201.327 288.556 191.806C288.556 182.286 290.121 169.092 287.03 164.836C283.939 160.579 272.688 149.034 271.852 143.682C271.015 138.329 278.594 130.142 278.594 130.142C278.594 130.142 280.849 125.905 282.817 128.167C284.786 130.428 283.939 133.243 282.817 137.193C281.695 141.144 280.563 144.245 280.563 144.245C280.563 144.245 290.406 147.346 292.936 145.657C295.466 143.968 295.24 134.31 295.062 129.579C294.698 120.355 291.017 124.296 288.467 128.661C287.237 130.754 280.031 129.51 284.244 124.147C288.457 118.785 292.375 114.054 296.312 118.291C300.25 122.528 303.055 130.705 303.055 130.705C303.055 130.705 305.87 117.264 308.43 109.363C310.989 101.463 315.576 98.3323 317.23 98.8853C318.883 99.4383 318.696 102.194 317.043 106.055C315.389 109.917 311.727 120.572 310.812 124.068C309.896 127.565 309.719 131.604 311.55 131.238C313.381 130.873 319.789 119.654 321.63 114.874C323.47 110.094 326.207 105.69 329.317 103.665C332.428 101.641 334.997 104.218 333.717 107.527C331.176 113.509 328.29 119.339 325.075 124.987C323.054 128.637 321.339 132.449 319.947 136.384C322.964 133.158 326.144 130.089 329.475 127.189C333.875 123.515 338.639 122.785 340.096 124.068C341.553 125.352 340.283 125.54 336.621 128.483C332.96 131.426 327.487 134.932 323.106 142.082C319.714 147.325 317.064 153.015 315.232 158.989C313.87 162.911 312.088 166.673 309.916 170.208C309.916 170.208 313.351 198.196 319.307 213.592C325.262 228.989 335.794 251.505 332.585 267.593C329.377 283.68 323.195 291.946 314.493 294.475C311.97 295.214 309.31 295.35 306.725 294.871C304.141 294.393 301.704 293.313 299.61 291.719" fill="#92E3A9"/>
<mask id="mask4_1_6473" style="mask-type:luminance" maskUnits="userSpaceOnUse" x="271" y="98" width="70" height="198">
<path d="M281.528 272.55C279.067 266.911 281.173 254.567 283.634 236.939C286.095 219.31 288.556 201.327 288.556 191.806C288.556 182.286 290.121 169.092 287.03 164.836C283.939 160.579 272.688 149.034 271.852 143.682C271.015 138.329 278.594 130.142 278.594 130.142C278.594 130.142 280.849 125.905 282.817 128.167C284.786 130.428 283.939 133.243 282.817 137.193C281.695 141.144 280.563 144.245 280.563 144.245C280.563 144.245 290.406 147.346 292.936 145.657C295.466 143.968 295.24 134.31 295.062 129.579C294.698 120.355 291.017 124.296 288.467 128.661C287.237 130.754 280.031 129.51 284.244 124.147C288.457 118.785 292.375 114.054 296.312 118.291C300.25 122.528 303.055 130.705 303.055 130.705C303.055 130.705 305.87 117.264 308.43 109.363C310.989 101.463 315.576 98.3323 317.23 98.8853C318.883 99.4383 318.696 102.194 317.043 106.055C315.389 109.917 311.727 120.572 310.812 124.068C309.896 127.565 309.719 131.604 311.55 131.238C313.381 130.873 319.789 119.654 321.63 114.874C323.47 110.094 326.207 105.69 329.317 103.665C332.428 101.641 334.997 104.218 333.717 107.527C331.176 113.509 328.29 119.339 325.075 124.987C323.054 128.637 321.339 132.449 319.947 136.384C322.964 133.158 326.144 130.089 329.475 127.189C333.875 123.515 338.639 122.785 340.096 124.068C341.553 125.352 340.283 125.54 336.621 128.483C332.96 131.426 327.487 134.932 323.106 142.082C319.714 147.325 317.064 153.015 315.232 158.989C313.87 162.911 312.088 166.673 309.916 170.208C309.916 170.208 313.351 198.196 319.307 213.592C325.262 228.989 335.794 251.505 332.585 267.593C329.377 283.68 323.195 291.946 314.493 294.475C311.97 295.214 309.31 295.35 306.725 294.871C304.141 294.393 301.704 293.313 299.61 291.719" fill="white"/>
</mask>
<g mask="url(#mask4_1_6473)">
<g opacity="0.2">
<path d="M329.918 113.551C330.095 113.59 330.26 113.673 330.398 113.792C330.535 113.911 330.641 114.062 330.705 114.232C330.643 114.061 330.538 113.908 330.4 113.789C330.263 113.669 330.096 113.587 329.918 113.551Z" fill="black"/>
<path d="M329.918 113.551V115.862L330.705 114.232C330.641 114.062 330.535 113.911 330.398 113.792C330.26 113.673 330.095 113.59 329.918 113.551Z" fill="black"/>
<path d="M333.137 259.959C333.137 259.301 333.107 258.642 333.048 257.984C332.438 258.142 331.67 258.725 330.941 260.226C331.684 260.291 332.431 260.2 333.137 259.959Z" fill="black"/>
<path d="M329.918 255.762V259.623C331.798 256.769 330.322 255.762 329.918 255.762Z" fill="black"/>
<path d="M282.669 137.253C282.325 137.253 281.242 137.974 282.01 139.88C282.256 139.08 282.521 138.201 282.787 137.272L282.669 137.253Z" fill="black"/>
<path d="M306.294 152.965C308.174 150.111 306.697 149.104 306.294 149.104C305.89 149.104 304.404 150.111 306.294 152.965Z" fill="black"/>
<path d="M329.504 116.701L329.918 115.862V113.551C329.544 113.551 328.293 114.4 329.504 116.701Z" fill="black"/>
<path d="M306.294 125.402C305.89 125.402 304.414 126.389 306.294 129.263C308.174 126.409 306.698 125.402 306.294 125.402Z" fill="black"/>
<path d="M286.951 164.283C287.021 164.159 287.063 164.022 287.075 163.88C287.087 163.739 287.068 163.596 287.02 163.463C286.928 163.353 286.814 163.264 286.685 163.202C286.556 163.141 286.415 163.109 286.272 163.107C286.088 163.102 285.905 163.129 285.73 163.186C286.134 163.68 286.498 164.125 286.794 164.52C286.856 164.448 286.909 164.368 286.951 164.283Z" fill="black"/>
<path d="M310.644 151.612C310.438 151.257 308.823 150.486 307.317 153.587C310.713 153.745 310.841 151.958 310.644 151.612Z" fill="black"/>
<path d="M310.162 129.244C310.124 128.701 310.124 128.157 310.162 127.614C309.532 127.417 308.381 127.614 307.288 129.856C308.289 130.018 309.314 129.8 310.162 129.244Z" fill="black"/>
<path d="M310.674 104.317C310.408 104.761 310.162 105.245 309.906 105.749C310.172 105.626 310.39 105.42 310.528 105.162C310.667 104.903 310.718 104.607 310.674 104.317Z" fill="black"/>
<path d="M278.319 139.761C278.122 140.097 278.25 141.815 281.429 141.736L281.518 141.48C280.051 138.695 278.525 139.416 278.319 139.761Z" fill="black"/>
<path d="M301.943 151.612C301.736 151.958 301.874 153.745 305.27 153.587C303.764 150.486 302.15 151.257 301.943 151.612Z" fill="black"/>
<path d="M325.567 116.059C325.37 116.405 325.498 118.183 328.854 118.035C327.378 114.943 325.773 115.704 325.567 116.059Z" fill="black"/>
<path d="M305.271 129.856C304.932 129.062 304.38 128.378 303.676 127.881C303.518 128.621 303.381 129.243 303.282 129.718C303.932 129.88 304.605 129.926 305.271 129.856Z" fill="black"/>
<path d="M302.543 129.332C302.386 128.918 302.189 128.434 301.962 127.891C301.883 128.161 301.898 128.451 302.003 128.713C302.109 128.974 302.299 129.193 302.543 129.332Z" fill="black"/>
<path d="M306.294 224.07C308.174 221.216 306.697 220.209 306.294 220.209C305.89 220.209 304.404 221.216 306.294 224.07Z" fill="black"/>
<path d="M306.294 196.507C305.89 196.507 304.414 197.495 306.294 200.369C308.174 197.515 306.698 196.507 306.294 196.507Z" fill="black"/>
<path d="M306.294 172.805C305.89 172.805 304.414 173.793 306.294 176.667C308.174 173.813 306.698 172.805 306.294 172.805Z" fill="black"/>
<path d="M287.059 210.975C287.059 211.183 287.01 211.4 286.98 211.607C287.069 211.409 287.097 211.189 287.059 210.975Z" fill="black"/>
<path d="M287.02 234.569C286.823 234.233 285.415 233.581 284.008 235.922H286.508C286.726 235.78 286.892 235.572 286.984 235.329C287.077 235.086 287.089 234.819 287.02 234.569Z" fill="black"/>
<path d="M307.356 224.663C310.752 224.851 310.88 223.063 310.684 222.688C310.487 222.313 308.823 221.592 307.356 224.663Z" fill="black"/>
<path d="M310.644 199.016C310.438 198.66 308.823 197.89 307.317 200.991C310.713 201.149 310.841 199.361 310.644 199.016Z" fill="black"/>
<path d="M307.356 177.26C309.857 177.398 310.585 176.47 310.713 175.828L310.624 175.245C310.25 174.88 308.735 174.366 307.356 177.26Z" fill="black"/>
<path d="M327.448 234.588C326.463 233.907 325.705 234.322 325.567 234.588C325.498 234.839 325.511 235.105 325.603 235.349C325.695 235.592 325.862 235.8 326.079 235.941H327.91L327.448 234.588Z" fill="black"/>
<path d="M301.943 222.718C301.736 223.063 301.874 224.851 305.27 224.693C303.764 221.592 302.15 222.362 301.943 222.718Z" fill="black"/>
<path d="M301.943 199.016C301.736 199.361 301.874 201.149 305.27 200.991C303.764 197.89 302.15 198.66 301.943 199.016Z" fill="black"/>
<path d="M301.943 175.314C301.736 175.659 301.874 177.447 305.27 177.289C303.764 174.188 302.15 174.958 301.943 175.314Z" fill="black"/>
<path d="M306.294 291.315C305.91 291.315 304.571 292.223 306.018 294.732L306.51 294.83C308.046 292.243 306.678 291.315 306.294 291.315Z" fill="black"/>
<path d="M282.669 259.623C284.55 256.769 283.073 255.762 282.669 255.762C282.266 255.762 280.78 256.769 282.669 259.623Z" fill="black"/>
<path d="M329.918 255.762C329.515 255.762 328.038 256.749 329.918 259.623V255.762Z" fill="black"/>
<path d="M306.294 271.474C308.174 268.62 306.697 267.613 306.294 267.613C305.89 267.613 304.404 268.62 306.294 271.474Z" fill="black"/>
<path d="M306.294 243.911C305.89 243.911 304.414 244.899 306.294 247.772C308.174 244.918 306.698 243.911 306.294 243.911Z" fill="black"/>
<path d="M310.644 293.823C310.457 293.497 309.109 292.835 307.691 295.018C308.501 295.122 309.317 295.165 310.133 295.146C310.345 295.007 310.509 294.805 310.601 294.567C310.693 294.33 310.708 294.07 310.644 293.823Z" fill="black"/>
<path d="M283.732 260.216C287.128 260.403 287.256 258.616 287.059 258.241C286.863 257.865 285.199 257.144 283.732 260.216Z" fill="black"/>
<path d="M307.356 272.067C310.752 272.254 310.88 270.467 310.684 270.091C310.487 269.716 308.823 268.995 307.356 272.067Z" fill="black"/>
<path d="M310.644 246.419C310.438 246.064 308.823 245.294 307.317 248.395C310.713 248.553 310.841 246.765 310.644 246.419Z" fill="black"/>
<path d="M325.567 281.972C325.409 282.239 325.458 283.355 327.033 283.769C327.299 283.295 327.565 282.782 327.811 282.318C326.699 281.192 325.724 281.695 325.567 281.972Z" fill="black"/>
<path d="M302.504 293.497C303.066 293.763 303.641 294.001 304.227 294.208C304.026 293.949 303.762 293.747 303.46 293.622C303.157 293.497 302.828 293.454 302.504 293.497Z" fill="black"/>
<path d="M281.645 260.216C281.419 259.716 281.124 259.251 280.769 258.833C280.769 259.297 280.691 259.752 280.661 260.206C280.989 260.229 281.317 260.233 281.645 260.216Z" fill="black"/>
<path d="M328.894 260.216C327.388 257.144 325.774 257.915 325.567 258.241C325.36 258.567 325.498 260.403 328.894 260.216Z" fill="black"/>
<path d="M301.943 270.121C301.736 270.467 301.874 272.254 305.27 272.096C303.764 268.995 302.15 269.766 301.943 270.121Z" fill="black"/>
<path d="M301.943 246.419C301.736 246.765 301.874 248.553 305.27 248.395C303.764 245.294 302.15 246.064 301.943 246.419Z" fill="black"/>
<path d="M284.008 235.922C283.9 236.099 283.802 236.297 283.693 236.504C284.672 236.653 285.672 236.443 286.509 235.912H284.008V235.922Z" fill="black"/>
<path d="M327.91 235.921H326.06C326.661 236.326 327.373 236.533 328.097 236.514L327.91 235.921Z" fill="black"/>
</g>
</g>
<path d="M281.528 272.55C279.067 266.911 281.173 254.567 283.634 236.939C286.095 219.31 288.556 201.327 288.556 191.806C288.556 182.286 290.121 169.092 287.03 164.836C283.939 160.579 272.688 149.034 271.852 143.682C271.015 138.329 278.594 130.142 278.594 130.142C278.594 130.142 280.849 125.905 282.817 128.167C284.786 130.428 283.939 133.243 282.817 137.193C281.695 141.144 280.563 144.245 280.563 144.245C280.563 144.245 290.406 147.346 292.936 145.657C295.466 143.968 295.24 134.31 295.062 129.579C294.698 120.355 291.017 124.296 288.467 128.661C287.237 130.754 280.031 129.51 284.244 124.147C288.457 118.785 292.375 114.054 296.312 118.291C300.25 122.528 303.055 130.705 303.055 130.705C303.055 130.705 305.87 117.264 308.43 109.363C310.989 101.463 315.576 98.3323 317.23 98.8853C318.883 99.4383 318.696 102.194 317.043 106.055C315.389 109.917 311.727 120.572 310.812 124.068C309.896 127.565 309.719 131.604 311.55 131.238C313.381 130.873 319.789 119.654 321.63 114.874C323.47 110.094 326.207 105.69 329.317 103.665C332.428 101.641 334.997 104.218 333.717 107.527C331.176 113.509 328.29 119.339 325.075 124.987C323.054 128.637 321.339 132.449 319.947 136.384C322.964 133.158 326.144 130.089 329.475 127.189C333.875 123.515 338.639 122.785 340.096 124.068C341.553 125.352 340.283 125.54 336.621 128.483C332.96 131.426 327.487 134.932 323.106 142.082C319.714 147.325 317.064 153.015 315.232 158.989C313.87 162.911 312.088 166.673 309.916 170.208C309.916 170.208 313.351 198.196 319.307 213.592C325.262 228.989 335.794 251.505 332.585 267.593C329.377 283.68 323.195 291.946 314.493 294.475C311.97 295.214 309.31 295.35 306.725 294.871C304.141 294.393 301.704 293.313 299.61 291.719" stroke="#263238" stroke-linecap="round" stroke-linejoin="round"/>
<path d="M323.106 142.082C327.506 134.912 333.008 131.416 336.67 128.483C340.332 125.55 341.592 125.352 340.145 124.068C338.698 122.785 333.924 123.515 329.524 127.189C326.193 130.089 323.013 133.158 319.995 136.383C321.372 132.45 323.071 128.638 325.075 124.987C328.28 119.339 331.155 113.509 333.688 107.527C334.967 104.218 332.408 101.601 329.288 103.665C326.167 105.729 323.431 110.094 321.6 114.874C319.769 119.654 313.351 130.873 311.52 131.238C309.689 131.604 309.867 127.555 310.782 124.068C311.697 120.582 315.369 109.916 317.013 106.055C318.657 102.194 318.844 99.4383 317.2 98.8852C315.556 98.3322 310.969 101.453 308.4 109.363C305.831 117.274 303.025 130.705 303.025 130.705C303.025 130.705 300.22 122.518 296.283 118.291C292.345 114.064 288.408 118.785 284.215 124.147C280.021 129.51 287.168 130.754 288.437 128.661C290.987 124.296 294.668 120.355 295.033 129.579C295.21 134.31 295.436 143.958 292.906 145.657C290.377 147.355 280.533 144.245 280.533 144.245C280.533 144.245 281.655 141.144 282.787 137.193C283.919 133.243 284.756 130.419 282.787 128.167C280.819 125.915 278.564 130.142 278.564 130.142C278.564 130.142 270.975 138.319 271.822 143.682C272.668 149.044 283.909 160.599 287 164.836C290.091 169.072 288.526 182.286 288.526 191.806C288.526 201.326 286.065 219.31 283.604 236.938C283.604 237.175 283.535 237.393 283.506 237.62C287.394 241.718 295.318 247.594 308.715 247.14C317.692 246.834 324.051 242.301 328.352 237.314C325.498 228.791 321.915 220.525 319.257 213.612C313.302 198.216 309.867 170.228 309.867 170.228C312.038 166.692 313.82 162.931 315.182 159.009C317.028 153.025 319.695 147.328 323.106 142.082Z" fill="#B2B2B2" stroke="#263238" stroke-linecap="round" stroke-linejoin="round"/>
<path d="M296.155 169.102C296.155 169.102 294.511 162.12 296.894 157.705C298.146 155.195 300.211 153.186 302.75 152.007" stroke="#263238" stroke-linecap="round" stroke-linejoin="round"/>
</svg>
